<svg width="119" height="120" viewBox="0 0 119 120" fill="none" xmlns="http://www.w3.org/2000/svg">
<path d="M118.245 61.4417C118.733 60.2055 118.16 58.8615 118.047 57.8863C117.845 56.0969 117.736 54.1465 117.486 52.2065C117.242 50.2704 116.857 48.3446 116.181 46.6773C115.989 46.2007 115.602 45.8826 115.413 45.4086C115.131 44.7061 115.006 43.9517 114.73 43.2167C113.708 40.495 112.613 37.6875 111.264 34.9541C109.917 32.2219 108.304 29.5651 106.376 27.2589C106.27 27.407 106.39 27.629 106.257 27.7679C105.733 26.398 104.353 24.6592 102.723 22.975C101.097 21.283 99.2275 19.6586 97.8485 18.2509C97.1239 17.5056 96.2357 16.9927 95.4773 16.507C94.7164 16.02 94.084 15.5578 93.8295 14.876C93.9723 14.7592 94.2606 15.1163 94.4099 15.0176C95.1969 15.4928 95.8994 16.0629 96.62 16.6823C97.0434 17.0459 97.4745 17.429 97.916 17.7977C98.0381 17.899 98.1978 17.9029 98.2744 17.8276C98.351 17.7432 98.3146 17.5913 98.1926 17.4887C97.7615 17.1277 97.3329 16.7485 96.9135 16.3875C96.1747 15.7512 95.3916 15.1111 94.5151 14.5942L94.5385 14.5813C93.4114 13.858 92.3816 13.0178 91.37 12.3127C90.3754 11.6193 89.4028 11.0635 88.4314 10.8973C88.3678 10.8713 88.3016 10.8337 88.2302 10.7921C88.0731 10.7012 87.8939 10.5999 87.6848 10.5921C87.6277 10.5895 87.5822 10.6116 87.5614 10.6467C87.5471 10.6701 87.5433 10.6999 87.551 10.7311C87.5744 10.8116 87.6692 10.8804 87.7653 10.8843C87.8588 10.8882 87.964 10.9479 88.0847 11.0181C88.1886 11.0778 88.3029 11.1414 88.4302 11.1843L88.4055 11.1999C89.0236 11.8335 89.9702 12.2932 90.8701 12.7802C91.7687 13.2658 92.618 13.7775 93.0101 14.4488C92.1687 14.2397 91.3791 13.8255 90.5247 13.3217C89.6716 12.8191 88.7522 12.227 87.6718 11.6816C86.768 11.2258 85.7227 10.9791 84.7761 10.5766C82.3945 9.5624 79.8806 8.57161 77.3575 7.85222C72.9061 6.57446 68.3612 5.6473 64.0332 5.17982C64.2124 4.95777 63.954 5.01361 63.5605 4.60847C62.5528 4.49679 63.7345 4.80584 63.1722 4.82662C62.8476 4.83831 62.0477 4.3111 61.5594 4.68378C61.2296 4.64093 61.4841 4.24098 61.24 4.14359C60.3505 4.07087 59.6883 3.87349 59.0325 3.67352C58.378 3.47484 57.7288 3.27357 56.8821 3.22033C57.1821 2.73987 58.5845 2.34511 59.4844 2.75675C59.6324 2.33732 60.2233 2.24772 60.8271 2.18019L60.8154 2.14643L60.8323 2.14903C61.027 2.18149 61.2114 2.21396 61.388 2.2685C61.5309 2.31265 61.6932 2.27239 61.7516 2.1763C61.8114 2.08021 61.7425 1.96593 61.5984 1.92049C61.3751 1.85036 61.1556 1.81141 60.9439 1.77635L60.9374 1.77505C59.9739 1.49067 58.617 1.11799 57.2405 0.975148C55.8186 0.823219 54.3889 0.919311 53.4604 1.50755C54.2201 2.18669 54.4356 3.25798 55.7809 3.48653C54.6343 3.96958 53.5968 3.88648 52.5398 3.71507C51.4867 3.54366 50.4167 3.28266 49.3077 3.419C49.1857 3.1567 49.5389 3.14371 49.8284 3.09956C48.4961 3.19436 47.3989 3.30733 46.3405 3.39433C45.2822 3.48133 44.2629 3.54107 43.0799 3.56444C42.528 3.58392 42.4709 3.06061 42.1229 2.85414C41.2152 2.90608 40.1816 2.74246 39.17 2.94374C38.2597 3.12423 37.243 3.53198 36.1782 4.02802C35.1121 4.52276 33.9966 5.10061 32.8591 5.61613C28.9557 7.37436 25.2951 9.63901 22.028 11.9154C20.8502 12.7321 19.5854 13.445 18.666 14.2527C18.2051 14.6579 17.9402 15.1695 17.4532 15.6837C17.0195 16.1395 16.3507 16.6394 15.856 17.1615C15.3613 17.6822 15.0405 18.2185 15.2898 18.7158C16.4481 17.664 18.131 16.046 20.0217 14.6449C21.9033 13.2373 23.9823 12.0569 25.6444 11.6933C26.8157 11.0908 27.8363 10.4779 28.8193 9.97014C29.801 9.46241 30.7451 9.05987 31.7372 8.89885C32.4552 8.78328 33.0591 9.08454 33.7161 8.90664C34.3563 8.73523 34.7822 8.40021 35.2056 8.17036C35.6276 7.94052 36.047 7.81327 36.6469 8.07687C36.7339 8.56382 35.5159 8.68459 35.3445 9.10272C35.3367 9.35204 36.0314 9.41956 35.5951 9.70005C36.1392 9.95975 37.0729 9.58837 38.0286 9.24556C37.7689 9.82341 36.8872 9.95846 36.3301 10.1169C35.2991 10.4129 34.5654 10.0818 33.237 10.7934L33.2538 10.8103C33.1552 10.8363 33.0591 10.8661 32.963 10.896C32.9266 10.9077 32.8916 10.9181 32.8565 10.9285C32.3267 10.896 31.3865 11.0336 30.5386 11.3466C29.6582 11.6686 28.8895 12.1738 28.8012 12.775C29.3699 12.9698 30.3724 12.2361 31.1528 12.0257C30.9476 12.2958 30.3282 12.6815 29.6257 13.0646C28.9206 13.4476 28.1311 13.8294 27.5597 14.0528C27.1299 14.2177 26.5326 14.5176 26.382 14.1333C25.286 14.8332 24.0485 15.7993 22.8318 16.7329C21.6124 17.664 20.4126 18.5613 19.2984 19.0885C19.7257 18.3314 20.5905 17.5627 21.5072 16.8277C22.4227 16.0902 23.3888 15.3864 24.0095 14.6812L23.9732 14.6566C24.3822 14.4605 24.7172 14.1917 25.0445 13.9294C25.3328 13.6983 25.608 13.4814 25.9236 13.3321C26.0508 13.2723 26.1223 13.1451 26.0807 13.049C26.0392 12.9529 25.9028 12.9243 25.7743 12.9841C25.3873 13.1659 25.0665 13.4191 24.7614 13.6645C24.4264 13.9346 24.1134 14.193 23.7381 14.3501C23.6654 14.3813 23.6109 14.4345 23.581 14.493C22.0851 15.4708 20.4762 16.4317 19.2764 17.7549C18.8193 18.2587 18.6621 18.8872 18.144 19.3664C17.5675 19.9001 16.6027 20.0429 16.1352 20.7974C15.6417 21.0986 16.117 21.2817 15.9131 21.5479C15.3807 21.7999 15.1574 22.6024 14.5562 22.8802C14.5341 22.8906 14.2315 22.8335 14.2367 22.8283C13.8329 23.2269 13.5108 23.6775 13.2368 24.1515C13.0862 24.2995 12.9369 24.4515 12.7901 24.6047C12.1824 25.2371 11.615 25.8967 11.167 26.4551C11.2605 26.511 11.6176 26.1396 12.0032 25.7163C12.3798 25.2994 12.7862 24.8371 12.9654 24.6514C12.659 25.2579 12.4071 25.8825 12.1474 26.4681C11.7085 27.4511 11.2384 28.3224 10.3632 28.8925C10.4489 28.7886 10.5372 28.6834 10.6307 28.5743C10.8099 28.3653 10.9969 28.151 11.1748 27.9329C11.2592 27.8277 11.2994 27.742 11.2631 27.7381C11.2267 27.7355 11.1293 27.8173 11.0436 27.9225C10.8982 28.1017 10.7346 28.2887 10.5644 28.4886C10.4073 28.6704 10.2502 28.8574 10.1009 29.0483C9.96062 29.1236 9.81259 29.1924 9.65287 29.2522C9.05294 29.9002 9.0893 30.3559 8.59326 30.9883C8.81791 31.2597 8.98412 30.8741 9.17111 30.7182C9.07761 30.8507 8.98542 30.9844 8.89582 31.1169C8.71013 31.3935 8.53612 31.6558 8.35952 31.8999C8.2907 31.9934 8.25044 32.0843 8.26862 32.1025L8.26992 32.1038C8.2907 32.1168 8.35822 32.0557 8.42575 31.9648C8.63351 31.6792 8.82959 31.3818 9.02308 31.0974C9.12436 30.9468 9.22565 30.8013 9.32564 30.6598C9.3581 30.665 9.39186 30.6806 9.42692 30.713C9.31005 31.2857 8.88803 32.0843 8.39198 32.7881C8.17773 33.0907 7.95048 33.3725 7.72194 33.6114C7.72194 33.6101 7.72194 33.6088 7.72194 33.6075C7.71544 33.5828 7.6687 33.6192 7.61805 33.6893C7.58949 33.7283 7.56222 33.7646 7.53365 33.7997C7.29602 34.0217 7.06228 34.1892 6.85062 34.2607C5.29367 37.9238 3.81982 41.291 2.29793 44.8126L2.34598 44.8074C2.22781 44.9048 2.13951 45.0126 2.04991 45.1307C2.01745 45.1736 2.01745 45.2346 2.04861 45.2671C2.0577 45.2762 2.06679 45.2814 2.07848 45.2853C2.10835 45.2931 2.14211 45.2801 2.16678 45.2489C2.21742 45.1827 2.26677 45.123 2.31871 45.0658C2.27586 45.1879 2.2343 45.3112 2.19665 45.4333C2.00057 46.0579 1.87461 46.65 1.86032 46.9941L1.86941 46.9877C1.82267 47.1253 1.77592 47.2772 1.73437 47.4395L1.73047 47.4305C1.42661 48.1161 1.11107 49.1926 1.21365 49.6406C1.22793 49.6211 1.24352 49.5899 1.2604 49.5523C1.23443 49.699 1.21235 49.847 1.19807 49.9951C1.15262 50.495 1.26559 51.1014 1.31234 51.8117C1.35779 52.5155 1.33441 53.3193 1.02926 54.2582L1.01238 54.2842C0.899403 54.4452 0.812401 54.5737 0.814998 54.7867C0.817595 54.875 0.872134 54.9412 0.942256 54.949C0.950047 54.9503 0.957838 54.9503 0.965629 54.949C1.04614 54.9412 1.10977 54.8568 1.10847 54.7607C1.10717 54.6893 1.12925 54.649 1.23313 54.4997L1.26559 54.453L1.26949 54.4802L1.40454 54.4958C1.69801 55.3671 1.3461 56.1034 1.16431 56.9176C0.873433 58.22 0.805908 59.8978 0.905896 61.6404C0.952644 62.4883 1.03965 63.3506 1.14613 64.1959C1.14613 64.2959 1.14613 64.3985 1.14353 64.5063L1.15522 64.4868C1.15781 64.6582 1.1682 64.8452 1.20456 64.9699C1.21365 65.001 1.22534 65.0166 1.23443 65.0166C1.24222 65.0153 1.24741 65.0036 1.25261 64.9841C1.34091 65.6048 1.437 66.2113 1.53309 66.7904C1.82396 68.5214 2.28495 70.2289 2.76671 72.0923C2.76671 72.1832 2.77579 72.2897 2.79787 72.4235C2.84592 72.5741 2.89266 72.6858 2.94071 72.7728C3.05888 73.2364 3.17575 73.7077 3.29132 74.1947C3.62374 74.4349 3.91202 74.779 4.20419 75.1153C4.21588 75.1816 4.23406 75.2582 4.26652 75.3608C4.35482 75.3504 4.48467 75.8594 4.59116 76.0217C4.73789 76.384 4.61193 76.3074 4.63271 76.4645C5.36898 78.6097 6.19875 80.4627 6.99475 82.0989C7.1298 82.3755 7.20252 82.6469 7.32978 82.9092C7.81284 83.8974 8.35563 84.7116 8.83219 85.5881C9.16592 86.1971 9.3542 86.7321 9.84116 87.3749C10.0788 87.7047 9.80869 87.5554 9.96971 87.8125C10.2995 88.3267 10.345 88.1047 10.6722 88.589C10.9202 89.011 11.215 89.4188 11.5228 89.8343C11.0787 89.4993 10.6346 89.2006 10.1723 89.063C10.1139 88.976 10.0892 88.9721 10.0684 88.976C10.0048 88.8591 9.93985 88.7422 9.95413 88.6955C9.80999 88.5098 9.9775 88.8344 9.81129 88.6098C9.75675 88.6059 9.9827 88.95 10.1087 89.0812C9.86193 89.2993 10.3917 89.7668 10.3593 90.0525C10.1684 89.8252 9.97491 89.5876 9.83986 89.4798L9.84895 89.4941L9.77104 89.4175L9.70611 89.3539C9.64767 89.2941 9.61521 89.2915 9.63209 89.3474C9.64897 89.4032 9.7113 89.498 9.76974 89.5577L9.84895 89.6369L9.95673 89.7434V89.7616C10.0281 89.8772 10.1022 89.9953 10.1788 90.1148C9.94114 90.1641 9.84245 90.1823 9.60093 90.1602C9.35161 90.5784 10.119 91.3134 9.91517 91.7432C9.86713 91.6808 9.81648 91.6172 9.76065 91.5497C9.72689 91.5796 9.75675 91.6873 9.82298 91.8276C9.59184 92.0107 9.33473 92.06 9.06982 92.0613C8.52833 91.2289 8.0245 90.4862 7.45963 89.6954C7.3973 89.6084 7.33757 89.5564 7.32069 89.5733C7.3064 89.5928 7.34406 89.6811 7.40639 89.7668C7.95048 90.529 8.43613 91.2458 8.96075 92.0587C8.49587 92.0444 8.01671 91.9328 7.61935 92.2145C7.24667 92.4807 7.34796 93.4417 6.79608 93.8078V93.8104C6.77141 93.7832 6.74673 93.7572 6.72466 93.7299C6.63636 93.6196 6.49871 93.5884 6.4169 93.6455C6.3351 93.7079 6.33899 93.8507 6.42859 93.9624C6.48573 94.0351 6.54806 94.1 6.61298 94.1662L6.57013 94.1766C7.10124 95.0389 7.73622 95.2246 7.45054 95.7777C8.74649 97.5619 10.0074 98.8202 11.1683 99.9136C11.1838 99.9435 11.202 99.9746 11.2267 100.002C13.2641 102.255 15.5976 104.157 17.957 105.822C20.8099 107.836 23.907 109.655 27.0533 111.569C27.2065 111.663 27.3922 111.654 27.4689 111.551C27.4727 111.546 27.4766 111.541 27.4792 111.534C27.539 111.432 27.4753 111.285 27.3325 111.198C24.1693 109.273 21.0761 107.457 18.2245 105.444C15.9365 103.829 13.6744 101.985 11.6981 99.8214C11.7175 99.6954 11.5189 99.5266 11.6383 99.4227C12.4084 99.837 13.0758 100.44 13.7459 101.077C14.4146 101.713 15.0847 102.383 15.8326 102.92C16.5988 103.466 17.2844 103.962 18.2791 104.791C19.7594 106.022 21.6293 107.109 23.5343 108.106C25.4418 109.107 27.3831 110.02 29.0674 111.032C30.4906 111.884 31.2866 112.908 32.7903 113.303L32.889 113.318C32.7942 113.356 32.7046 113.396 32.6202 113.435L32.5202 113.481L32.5124 113.468C32.0449 113.64 31.593 113.135 31.2866 113.177C30.8516 112.839 30.3555 112.632 29.8737 112.424C29.479 112.254 29.1076 112.089 28.7869 111.854C28.6739 111.771 28.5207 111.761 28.4415 111.832C28.3622 111.903 28.3921 112.029 28.5051 112.112C28.8856 112.391 29.3128 112.581 29.7257 112.759C30.2347 112.978 30.7178 113.179 31.1009 113.522L31.0489 113.543C31.5852 113.829 32.3124 114.272 33.0422 114.618C33.7707 114.965 34.4979 115.214 34.9991 115.135V115.108C35.238 115.226 35.4744 115.31 35.7146 115.366L35.6964 115.386C36.1847 115.661 36.9755 115.947 37.678 116.201C38.3805 116.457 38.9934 116.684 39.1168 116.883C39.6505 117.085 39.5622 116.522 39.9881 116.591C41.5918 117.424 44.0175 118.18 46.4548 118.685C48.8922 119.202 51.3308 119.47 52.9371 119.653L52.9319 119.64C53.2254 119.722 53.5591 119.725 53.8604 119.649L53.8838 119.705C54.9395 119.819 55.5472 119.844 56.9172 119.906C56.8704 119.766 56.5393 119.818 56.538 119.646C57.1145 119.658 57.5301 120.12 58.0547 119.767L58.0404 119.74C59.0351 119.923 60.1064 119.962 61.2101 119.845C61.3231 119.833 61.4049 119.763 61.3997 119.688L61.3984 119.679C61.3854 119.599 61.2816 119.546 61.1647 119.559C60.1259 119.668 59.1169 119.633 58.1806 119.466C57.5807 119.054 56.1225 119.224 55.4225 118.857C54.9343 118.513 55.855 118.731 55.6238 118.217C54.5499 118.401 54.4759 118.087 53.9903 117.645C54.3136 117.328 54.8901 117.362 55.5121 117.398C56.1341 117.436 56.8029 117.476 57.2808 117.2C58.2728 117.636 59.4532 117.492 60.5778 117.323C61.7062 117.157 62.7801 116.967 63.6787 117.353C64.4578 117.028 65.7628 116.614 66.6952 116.561C66.8575 116.552 66.9497 116.913 66.9432 116.914C67.2315 116.87 66.9328 116.547 67.0549 116.504L69.5533 116.039C69.5961 116.034 70.1428 116.179 70.1454 116.178C70.57 116.08 70.8583 115.756 71.3232 115.645C72.5412 115.355 73.5723 115.188 74.5877 114.93C75.5993 114.67 76.5952 114.32 77.6834 113.63C79.452 113.363 81.7608 112.347 84.0761 111.234C85.9759 110.329 87.8861 109.092 89.7313 108.109C90.6286 107.632 91.5324 107.471 92.2193 106.945C92.5167 106.717 92.6426 106.331 92.9413 106.118C93.6425 105.615 94.3281 105.219 94.967 104.764C95.6033 104.308 96.1915 103.788 96.6655 103.047C96.8824 102.902 96.9823 103.294 97.2096 103.102C98.4172 102.073 99.6223 100.839 100.803 99.5695C101.986 98.3008 103.144 96.9958 104.322 95.8232C105.093 95.0493 106.112 94.3091 107.241 92.8625C107.604 92.395 107.998 91.8743 108.363 91.4575C108.838 90.9173 109.702 90.0564 109.968 88.8825C110.235 88.1423 110.664 88.5864 110.947 87.9813C111.108 87.158 111.421 86.5204 111.797 85.8608C112.173 85.2011 112.613 84.5194 112.995 83.6182C114.304 80.5471 115.297 77.045 116.009 73.6363C116.245 72.5235 116.467 71.286 116.697 70.1056C116.928 68.9252 117.169 67.8007 117.481 66.9086C117.415 66.1178 117.498 65.1737 117.58 64.2128C117.662 63.2519 117.743 62.2741 117.699 61.4378L117.969 61.4417L118.014 61.4132C118.032 61.4833 118.056 61.6014 118.067 61.7274C118.073 61.8001 118.124 61.8521 118.18 61.843C118.236 61.8339 118.276 61.7663 118.269 61.6936C118.262 61.6014 118.247 61.5144 118.233 61.4391L118.245 61.4417ZM103.467 34.4074L103.546 34.5243C104.155 35.4241 104.754 36.3773 105.131 37.3616C105.107 37.4031 105.07 37.4499 105.028 37.5018C104.992 37.5473 104.95 37.5979 104.91 37.6563C104.262 36.4318 103.562 35.2281 102.811 34.0542C103.119 33.5945 103.213 34.5282 103.467 34.4074ZM12.9564 96.901C12.7564 96.6555 12.559 96.4127 12.3642 96.1738C12.1681 95.7505 12.037 95.3401 11.9188 94.9311C12.0526 95.0934 12.1889 95.257 12.3292 95.4219C12.6382 95.7881 12.9628 96.1556 13.2823 96.5036C13.194 96.6581 13.0654 96.7893 12.9564 96.901ZM19.0439 94.8285C19.2413 94.9882 19.0244 94.7623 18.9881 94.6844C19.2413 94.909 19.5023 95.0713 19.7412 95.2116C19.7062 95.3323 19.6971 95.4544 19.7114 95.5791C19.5828 95.5012 19.4166 95.3739 19.2608 95.2116C19.5205 95.2713 19.0387 94.9129 19.0439 94.8285ZM18.4089 91.1004C18.0635 90.7043 17.7597 90.2447 17.4974 90.1018V90.1096C17.2961 89.8512 17.1169 89.646 16.9507 89.4889L16.9663 89.4915C16.7676 89.2292 16.8831 89.1941 16.5273 88.8111L16.4313 88.6929C16.526 88.728 16.5611 88.6903 16.5949 88.65C16.6221 88.615 16.6481 88.5851 16.7065 88.6033C16.865 88.8007 17.0338 89.002 17.2221 89.2188C17.2948 89.3032 17.3727 89.3565 17.3935 89.3396L17.3948 89.3383C17.4155 89.3175 17.3701 89.2305 17.2961 89.1448C17.1117 88.9318 16.9468 88.7345 16.7922 88.5423C16.7585 88.4994 16.7221 88.4644 16.691 88.4397C16.6572 88.3981 16.6234 88.3592 16.591 88.3228L16.5144 88.2332C16.4689 88.1787 16.417 88.1384 16.4105 88.1579C16.3988 88.1709 16.4248 88.2267 16.4689 88.28L16.5637 88.3903C16.5793 88.4072 16.5923 88.4228 16.604 88.4371C16.5196 88.4059 16.4871 88.4462 16.4546 88.4851C16.4364 88.5072 16.417 88.528 16.3884 88.5345C16.3079 88.4319 16.2521 88.3825 16.2157 88.3748L16.2209 88.3825C16.1599 88.3163 16.1001 88.254 16.0417 88.193C15.9833 88.1319 15.9274 88.0748 15.8729 88.0138C15.8677 88.0086 15.8638 88.0047 15.8586 87.9995L15.8534 87.9735C15.6547 87.6554 15.2781 87.1918 14.9535 86.7412C14.6276 86.2919 14.351 85.8543 14.3276 85.6141C13.9432 85.218 13.603 84.6479 13.5745 84.3571C13.6524 84.4493 13.729 84.5415 13.777 84.5467L13.7563 84.5064C13.8316 84.5791 13.8744 84.5999 13.9069 84.6129C13.9251 84.6207 13.9394 84.6259 13.9549 84.6402C13.9718 84.6544 13.9848 84.6583 13.9913 84.6544C14.0004 84.6492 13.9991 84.6298 13.9874 84.5999C13.9666 84.5454 13.9186 84.4752 13.8796 84.4428C13.8394 84.409 13.8121 84.3973 13.7887 84.3882C13.7692 84.3791 13.7524 84.3714 13.7303 84.3532C13.3823 83.8675 13.5433 83.8597 13.2888 83.452C13.1992 83.3468 13.1472 83.3728 13.0226 83.1442L13.0174 83.1806C12.981 83.0988 12.9408 83.0183 12.9044 82.9482L12.8668 82.8754C12.846 82.8352 12.8161 82.8001 12.8018 82.7962C12.785 82.791 12.7888 82.8209 12.8096 82.8624L12.8499 82.9404C12.8707 82.9793 12.8901 83.0183 12.9096 83.0559L12.7733 83.1286C12.5616 82.7625 12.3512 82.2469 12.1097 81.9755C12.1591 81.9639 12.2071 81.9509 12.137 81.8132C11.7617 81.1756 11.3812 80.5991 11.1124 79.9316C11.1929 79.9563 11.2864 79.942 11.3994 79.8719C11.4513 79.7421 11.3436 79.0512 11.054 79.0785C11.0241 79.0343 10.9917 78.9915 10.9605 78.9486L10.9787 78.9473C10.4463 77.9527 10.8008 77.3735 10.1983 76.3048C10.2307 76.3009 10.2619 76.2996 10.2917 76.3009C10.3917 76.5282 10.4969 76.7658 10.6138 77.0398C10.4917 77.741 11.4695 78.2513 11.4345 78.6734L11.4513 78.7032C11.428 78.6928 11.4059 78.6837 11.3864 78.685C11.363 78.6824 11.3721 78.7435 11.402 78.8136C11.4332 78.8837 11.4734 78.9383 11.4955 78.937C11.502 78.937 11.5111 78.9396 11.5202 78.9422L11.6773 79.2746C11.663 79.359 11.4488 79.2071 11.576 79.4616C11.876 80.1173 12.0292 80.0225 12.2876 80.4264C12.3837 80.7523 12.6058 81.399 12.9693 81.834C12.8135 81.8613 12.8187 81.8885 12.6915 81.8275C13.342 83.0092 14.0978 84.3324 14.9457 85.6076C15.7898 86.8827 16.726 88.1086 17.6662 89.1136C17.8376 89.3136 17.7025 89.2993 17.9622 89.5564C18.6894 90.3369 19.5088 91.3874 20.3451 92.2496C20.8865 92.6457 21.8799 93.4715 22.4954 94.0728C22.4669 94.1182 22.3578 94.1247 22.5045 94.2571C23.0915 94.7155 23.4317 94.835 24.242 95.5388C24.1783 95.7115 24.5004 95.8401 24.777 96.1569C25.2146 96.4997 25.26 96.3647 25.6236 96.6101C25.5847 96.6413 25.5457 96.6711 25.6717 96.7672C25.9963 96.9659 26.3716 97.4165 27.0871 97.8723C27.0832 97.8736 27.0806 97.8736 27.0767 97.8762C26.9832 97.932 26.9624 98.0515 27.0325 98.145C27.126 98.2696 27.2312 98.3722 27.3364 98.4722L27.1806 98.6722C26.4962 98.4696 26.0015 97.4113 25.4081 96.8581C25.3496 96.8945 25.3159 96.9308 25.2964 96.9659C25.2626 96.949 25.2302 96.9347 25.2029 96.9243L25.2068 96.9308C25.1717 96.901 25.1367 96.8685 25.099 96.8347C24.9795 96.727 24.8263 96.5893 24.6549 96.4945H24.6744C24.7471 96.3296 24.2978 96.1686 23.8524 95.7842C23.6537 95.6128 23.8719 95.7258 23.4706 95.3986C23.3681 95.3142 23.3161 95.3674 23.1096 95.1934C22.7214 94.8701 22.2357 94.2857 21.8799 94.1533C21.8747 94.1481 21.8695 94.1429 21.863 94.1377C21.8436 94.0702 21.6241 93.8987 21.4852 93.7663C21.4644 93.6819 21.7254 93.7468 21.5034 93.5559C20.9865 93.2365 20.8697 92.9807 20.4009 92.621C20.3736 92.5885 20.3464 92.5522 20.3178 92.5145C20.297 92.4392 20.5775 92.6469 20.371 92.4106C20.2321 92.3756 19.8243 91.8938 19.7231 91.9159C19.6685 91.873 19.6101 91.8289 19.5464 91.7821C19.5348 91.773 19.5257 91.7691 19.5153 91.7626L19.5062 91.7484C19.1465 91.1978 18.4726 90.6641 18.2518 90.1797C18.0765 90.1096 17.9025 90.0369 17.7726 90.0525C18.1804 90.5628 18.6842 90.9627 18.8673 91.238L18.818 91.2809C18.8063 91.2783 18.7959 91.277 18.7829 91.2744C18.7491 91.2666 18.718 91.2601 18.6946 91.2588L18.6725 91.229C18.605 91.2251 18.4674 91.0926 18.4089 91.1004ZM18.4713 94.0052C18.3206 93.9754 18.2362 94.0507 17.9168 93.7455C17.7168 93.5339 17.7843 93.4845 17.7168 93.3547C17.9583 93.5598 18.1596 93.6975 18.4713 94.0052ZM15.3431 91.1419C15.2548 91.0472 15.1704 90.9355 15.0834 90.8173L14.9665 90.6602L14.9834 90.668C15.0003 90.6264 15.0509 90.655 15.1288 90.7342C15.1652 90.8485 15.2561 90.8861 15.4223 91.1147C15.4301 91.1614 15.3885 91.1601 15.3431 91.1419ZM15.7651 91.1199L15.7768 91.1212C15.1379 90.3966 15.0081 90.1797 14.7302 90.1512L14.2874 89.6045C14.203 89.3006 14.5016 89.2539 14.8808 89.6915C15.2483 90.12 14.86 89.9771 15.282 90.4407C15.3405 90.2602 15.756 90.7978 16.1235 91.2056L16.1689 91.216L16.3481 91.5094C16.1612 91.3757 16.0378 91.3302 15.956 91.3147L15.8716 91.2263L15.7651 91.1199ZM16.591 91.7263L16.5442 91.6743C16.5209 91.6497 16.4988 91.6276 16.4767 91.6081L16.4598 91.5809L16.3455 91.3952C16.4858 91.4108 16.6897 91.6237 16.7624 91.7639C16.6494 91.6497 16.6351 91.7159 16.591 91.7263ZM15.4924 89.5824C15.5379 89.5759 15.5223 89.524 15.4612 89.4383L15.4898 89.4175C15.9235 89.7551 15.7898 89.3266 15.2743 88.7202C15.2158 88.9864 15.0457 88.5085 14.8237 88.367C14.9172 88.5799 15.1769 88.9188 15.2236 89.0903L15.1937 89.1123C14.9951 89.0253 14.8665 88.5981 14.6561 88.4851C14.686 88.428 14.873 88.6189 14.7406 88.4267C14.4795 88.0514 14.5471 88.2904 14.573 88.3761C14.2393 87.8761 14.0212 87.7203 13.9666 87.4567C14.4938 87.9086 14.1263 87.2243 14.6081 87.5216C15.3041 88.3423 15.7625 89.002 16.2534 89.6993C16.2365 89.8408 15.9586 89.4512 15.9417 89.5928C16.0222 89.7577 16.2326 90.0057 16.3858 90.1161C16.1988 90.1369 16.6663 90.816 17.422 91.5796C17.3961 91.6549 17.5415 91.8406 17.6025 91.9704C16.8104 91.2536 15.9183 90.307 15.4924 89.5824ZM15.8807 88.1176L15.8755 88.093C15.9339 88.1566 15.991 88.2163 16.0469 88.2748C16.0949 88.3254 16.143 88.3735 16.1884 88.4228C16.1962 88.5553 16.0391 88.5656 16.2495 88.8487C16.2676 88.7565 16.4235 88.9591 16.5624 89.1201L16.4806 89.1811H16.4793C16.2261 88.95 15.8651 88.554 15.5833 88.1787C15.3015 87.8034 15.0964 87.4515 15.1366 87.3229C15.4054 87.6398 15.6249 87.8398 15.8807 88.1176ZM17.4285 90.3304C17.0117 89.9174 17.3013 90.2109 17.1857 90.0044C17.0831 89.8992 17.0714 89.9785 16.9546 89.8421C17.039 89.7577 16.6053 89.546 16.7169 89.5123C16.8182 89.5928 16.8987 89.6304 16.974 89.6564L16.9455 89.6058C17.0844 89.7304 17.2402 89.9096 17.4376 90.1706L17.4181 90.1667C17.3506 90.1706 17.4584 90.2979 17.4285 90.3304ZM13.9432 85.5349C13.8874 85.6426 13.6874 85.3543 13.4823 85.0297L13.5991 84.9596C13.79 85.2219 13.7069 85.2362 13.9432 85.5349ZM12.9096 85.2141C12.7291 84.931 12.559 84.6596 12.4395 84.5428C12.6006 84.4999 12.8291 84.9843 12.9992 85.1609L12.9096 85.2141ZM12.9304 85.6777L12.7836 85.766C12.6979 85.6296 12.5629 85.4439 12.5863 85.405C12.7486 85.6374 12.733 85.3556 12.9304 85.6777ZM10.3359 81.4912C10.5657 81.5327 10.8021 81.6873 10.8021 81.4211L10.7709 81.3717C10.7995 81.386 10.8267 81.3977 10.8488 81.4029C10.8605 81.4185 10.8722 81.4353 10.8878 81.4652C10.9189 81.5211 10.954 81.56 10.9683 81.5522L10.9696 81.5509C10.9826 81.5392 10.967 81.4821 10.9345 81.4224C10.8774 81.3172 10.8345 81.2613 10.7995 81.2185L10.7774 81.1899L10.7631 81.1873C10.7488 81.1847 10.7294 81.1782 10.7073 81.1679V81.1653C10.5722 80.9224 10.5008 80.964 10.3982 80.8614C10.2463 80.5861 10.171 80.3939 10.1281 80.2407L10.1139 80.2316C10.11 80.2225 10.1087 80.2134 10.1035 80.203C10.0281 80.0212 9.93595 79.8265 9.82298 79.6148L9.83726 79.6291L9.8009 79.5655C9.81648 79.5797 9.83207 79.594 9.84635 79.6057C9.85934 79.6174 9.87232 79.6291 9.88401 79.6408C10.0606 79.9264 9.86583 79.3746 9.88271 79.3187C9.83337 79.3278 9.78272 79.3356 9.84375 79.481L9.85804 79.5109C9.83986 79.494 9.82298 79.4771 9.8048 79.4616C9.75415 79.2161 9.41653 78.7876 9.3607 78.6565C9.39186 78.7279 9.38277 78.5422 9.37109 78.5071C9.30486 78.3305 9.21916 78.1267 9.12696 77.9111C9.3607 78.0734 9.56327 78.3214 9.76714 78.5604C9.92297 78.9863 10.1957 79.52 10.4489 79.955L10.3541 79.9966L10.3554 79.9992C10.3372 79.9901 10.3138 79.9719 10.2866 79.9498C10.2463 79.9161 10.2009 79.8784 10.1671 79.8745C10.1476 79.8732 10.1528 79.92 10.1788 79.9797C10.2047 80.0394 10.2411 80.0901 10.2606 80.0914C10.2814 80.094 10.3151 80.1199 10.3502 80.1498C10.3891 80.181 10.432 80.2147 10.4632 80.2173L10.471 80.2381C11.1267 81.4198 11.5734 82.6962 12.2409 83.5676L12.15 83.6169L12.1655 83.639C12.1396 83.6377 12.1175 83.6416 12.098 83.6468L12.0889 83.6494C11.9045 83.5844 11.5617 82.9559 11.3617 82.8079C11.4358 82.9495 11.363 82.9365 11.3371 82.9728C11.5955 83.2377 11.5046 83.3481 11.7188 83.6961L11.7072 83.7026C11.7059 83.7026 11.702 83.7013 11.7007 83.7013C11.6812 83.713 11.6344 83.6831 11.5825 83.652C11.576 83.6468 11.5695 83.6442 11.5617 83.6403L11.5591 83.626C11.476 83.5026 11.4513 83.5779 11.3604 83.4221C10.9891 82.7884 10.7553 82.1976 10.3359 81.4912ZM10.4697 82.1859C10.4748 82.408 10.0905 81.6873 10.2762 81.8223L10.4697 82.1859ZM9.13605 78.7461C8.95555 78.6006 8.70104 77.9384 8.79583 77.8579C8.69714 77.7942 8.57118 77.554 8.44522 77.2631C8.41795 77.1969 8.39588 77.1359 8.3751 77.0774C8.50236 77.3242 8.62312 77.5605 8.7335 77.7436C8.78155 77.7514 8.82829 77.7644 8.87374 77.78C8.90621 78.1994 9.3607 78.9344 9.67365 79.6862C9.69053 79.7667 9.71909 79.8498 9.74377 79.9212C9.75286 79.9459 9.75935 79.9667 9.76714 79.9901C9.78922 80.1654 10.0814 80.6575 10.0255 80.7328C9.58145 79.6862 9.1776 79.3213 9.13605 78.7461ZM1.84734 47.4331C1.86811 47.3461 1.89409 47.2591 1.92136 47.1721L1.93694 47.1759C1.90058 47.2967 1.86292 47.4162 1.82526 47.5356C1.83305 47.4993 1.83955 47.4655 1.84734 47.4331ZM35.8782 111.954C35.8496 111.898 35.7483 111.836 35.5912 111.764C35.512 111.668 35.4406 111.604 35.377 111.564C35.3783 111.555 35.3822 111.547 35.3822 111.537L35.3783 111.397C35.5912 111.339 35.7535 111.4 35.9159 111.462C35.6549 111.61 35.9392 111.894 35.8782 111.954ZM14.9042 96.1102C15.0327 96.2491 15.1587 96.3855 15.1782 96.453C15.3041 96.5257 15.4548 96.6374 15.6236 96.7711C15.5508 96.788 15.4794 96.8127 15.408 96.8529C15.0301 96.5257 14.9094 96.2972 14.9042 96.1102ZM18.8582 91.425L18.8569 91.4237C18.8738 91.4263 18.8907 91.4302 18.9089 91.4341C18.9348 91.4393 18.9595 91.4445 18.9803 91.4471L19.0024 91.477C19.2738 91.7419 19.5555 92.012 19.7114 92.0691C19.7412 92.0912 19.7685 92.112 19.7945 92.1327L20.0295 92.3639L20.0451 92.373C20.0516 92.3834 20.0555 92.3924 20.0646 92.4041C20.1113 92.4665 20.1555 92.5223 20.1983 92.5755C20.1685 92.8106 21.1242 93.6001 21.6955 94.1338L21.6942 94.1247C21.728 94.1572 21.7631 94.1896 21.7981 94.2221H21.7968C22.1916 94.674 23.1837 95.3908 23.3784 95.7128C22.3539 95.0389 21.3462 93.9364 20.0022 92.7599C20.0334 92.7158 20.1425 92.7171 20.0035 92.5729C19.9191 92.7353 19.2608 91.9561 18.8764 91.5886C18.9426 91.5809 18.831 91.4588 18.8582 91.425ZM24.7588 96.6179C24.8315 96.6659 24.9055 96.7322 25.0068 96.8244C25.064 96.8763 25.125 96.9308 25.1899 96.9841L25.1626 96.9789C25.0886 97.0036 25.1756 97.0919 25.3133 97.1931C25.3405 97.2659 25.3639 97.3373 25.3185 97.4126C25.1367 97.262 24.9328 97.0971 24.7393 96.9386C24.3627 96.6296 24.0316 96.3452 24.0017 96.2413C24.2809 96.2556 24.6809 96.9036 24.7588 96.6179ZM24.8484 95.2401L24.7913 95.1882C24.864 95.2375 24.9406 95.2882 25.0549 95.3531C25.0743 95.3648 25.0886 95.3674 25.0925 95.3635C25.0951 95.3609 25.0938 95.3583 25.0925 95.3531C25.0834 95.3349 25.0523 95.3077 25.0224 95.2921C24.9601 95.257 24.912 95.2259 24.8666 95.1973C24.851 95.1012 24.6575 94.9285 24.4082 94.7272C24.4238 94.6961 24.416 94.6558 24.3861 94.6285C24.168 94.4402 23.9524 94.2494 23.7381 94.0559C23.7018 94.0234 23.6459 94.0221 23.6135 94.0546C23.581 94.087 23.5862 94.139 23.6226 94.1727C23.6628 94.2091 23.7044 94.2442 23.7446 94.2805C23.8459 94.3883 24.0212 94.5298 24.0121 94.5857C23.7161 94.5065 22.8084 93.8182 22.4214 93.3819C22.6616 93.2794 23.4031 94.2325 23.5901 94.0676C22.9421 93.4365 22.0422 92.634 21.1424 91.7484C20.2412 90.8654 19.3413 89.9005 18.6557 89.0045C18.5297 88.8409 18.4063 88.6241 18.2817 88.4708C18.3843 88.6007 17.7116 87.9748 17.6973 87.7722C17.5844 87.9501 17.2441 87.6385 16.878 87.2411C16.7663 87.0295 17.148 87.2606 17.3688 87.5307C17.5142 87.545 17.1987 87.2139 17.3441 87.2281C17.0286 86.8503 16.9104 86.9321 16.652 86.4477L16.6507 86.4724C16.5105 86.2283 16.3209 85.914 16.1157 85.6842L16.0897 85.6556L16.0716 85.6478L16.0339 85.6322L16.0352 85.6128C15.8118 85.3959 15.6911 85.4621 15.369 84.9622L15.3262 84.9102C15.382 84.9479 15.4327 84.9791 15.4625 84.9934C15.4677 84.9959 15.4716 84.9959 15.4742 84.9947C15.4807 84.9895 15.4781 84.9713 15.4638 84.944C15.4444 84.9063 15.4119 84.8674 15.3911 84.8583C15.3703 84.8479 15.3392 84.8297 15.3028 84.8064C15.2041 84.6661 15.1145 84.5324 15.134 84.496C15.2807 84.622 15.5288 84.8155 15.4535 84.6038C15.3457 84.4947 15.221 84.3402 15.0652 84.0844L14.9483 84.1545V84.1558C14.8782 84.0506 14.8574 84.0935 14.8185 84.0831C14.7678 83.9208 14.5042 83.5572 14.4575 83.3935C14.5808 83.4896 14.7444 83.7143 14.8133 83.6364C14.6977 83.4559 14.177 82.6547 14.4315 82.965C14.4068 82.7793 14.0848 82.5638 14.0497 82.7339C13.642 81.9898 13.4472 81.9275 13.1797 81.2938C13.0563 81.2613 12.8849 81.0276 12.7473 80.9302C12.4863 80.4588 12.5512 80.464 12.3266 80.1251C12.5071 80.1251 12.585 79.8875 12.7564 80.2108C12.7512 80.0992 12.7616 80.0083 12.6473 79.7719C12.6941 79.7317 12.7668 79.7485 12.8797 79.8239L12.8875 79.8654C12.9291 79.9602 12.9525 79.9667 12.9745 79.9641L13.0317 80.0602L13.0434 80.0797L13.0369 80.0771C13.307 80.6432 13.5186 80.89 13.6706 80.9042C13.6082 80.7601 13.5848 80.6549 13.642 80.6354C13.4628 80.4381 13.2667 80.1563 13.0888 79.9407L13.0096 79.8057L13.0148 79.807C12.9525 79.6719 12.9057 79.607 12.8694 79.594L12.8681 79.6096C12.8642 79.5979 12.8616 79.5875 12.8577 79.5745L12.8473 79.5434L12.8291 79.5122C12.7473 79.3655 12.6642 79.2343 12.5837 79.1071L12.5304 79.0227L12.5564 79.0356C12.2902 78.2734 11.8825 77.6839 11.5708 77.1359C11.6812 77.1333 11.8071 77.1619 11.9461 77.1839C12.1149 77.4865 12.2863 77.7566 12.4551 78.0189C12.7901 78.537 13.1148 79.0162 13.4212 79.6213C13.4758 79.7472 13.3979 79.7265 13.4745 79.8745C13.7576 80.4511 13.9653 80.6419 14.164 80.803C14.5198 81.3912 14.947 82.1392 15.1639 82.1249C14.7535 81.4808 14.5614 80.9224 14.2289 80.3498C13.9705 79.9031 13.5991 79.5732 13.5082 79.0292C13.2914 78.5967 13.1472 78.5552 12.9278 78.0514C12.8875 77.902 12.9641 77.854 12.9291 77.7384C12.9564 77.7436 12.9862 77.7475 13.0174 77.7488C13.4381 78.3046 13.7602 78.972 14.1004 79.6901C14.4406 80.4095 14.799 81.1795 15.2781 81.9197C15.3846 82.1132 15.3742 82.1924 15.2885 82.2002C15.4093 82.3326 15.7222 82.6404 15.5223 82.6443C15.7261 82.9702 16.2728 83.5844 15.9768 83.5429C16.1625 83.6169 16.5663 84.3324 16.8896 84.7557C17.1831 85.0985 17.3792 85.1907 17.7973 85.8166C17.822 85.9452 17.996 86.188 17.9934 86.2945C18.3479 86.6841 18.4635 86.8477 18.5712 87.1256C18.7985 87.1762 19.1348 87.8125 19.3608 87.9579L19.3828 87.9631C19.4698 88.141 19.6451 88.3618 19.8373 88.5254L19.8386 88.5514C20.0087 88.7552 19.6451 88.4708 19.8178 88.7319C20.3425 89.2188 21.2047 90.2382 21.5137 90.2589C21.6397 90.3771 21.767 90.5212 21.902 90.6758C22.1046 90.9056 22.337 91.1588 22.6123 91.3562L22.6019 91.3666C22.8201 91.5692 23.0395 91.7691 23.2629 91.9678V91.96C23.3888 92.0834 23.4927 92.1743 23.5992 92.2665L23.6537 92.3132C23.8031 92.5067 24.116 92.7755 24.1381 92.9028C24.2602 92.9625 24.3809 93.0196 24.4991 93.0729L24.9471 93.4391C25.0328 93.5079 25.1172 93.5455 25.1354 93.5235C25.1549 93.5027 25.1003 93.43 25.0159 93.3612L24.5666 92.9937C24.4913 92.8651 23.8303 92.1561 23.7187 92.2301L23.6654 92.1834C23.5836 92.112 23.5135 92.0509 23.4343 91.9756C23.5148 91.9574 23.4278 91.8548 23.4304 91.7964C23.2096 91.7081 22.7954 91.3056 22.5578 91.1783C22.389 91.0549 22.2292 90.8809 22.05 90.6784C21.8669 90.4719 21.6631 90.2369 21.4241 90.0356V90.0304C20.98 89.4668 20.3204 88.876 19.9983 88.4202C20.2723 88.9214 19.9282 88.3774 19.7334 88.3189C19.6789 88.2631 19.6322 88.2033 19.5932 88.1462C19.7841 88.2397 19.6516 87.9229 19.6036 87.767L19.6218 87.7709C19.6218 87.7722 19.6231 87.7722 19.6231 87.7735C19.7438 87.9397 19.8802 88.0878 20.023 88.2241C20.0269 88.2306 20.0308 88.2358 20.036 88.2423L20.0178 88.241L20.1022 88.3345L20.1035 88.3228C20.1814 88.4163 20.2697 88.515 20.3684 88.615L20.3554 88.6137C20.7346 89.2123 21.5917 89.6201 21.841 90.1616C22.0111 90.3226 21.9812 90.1395 22.1202 90.2473C22.6292 90.729 22.8603 91.064 23.2434 91.264C23.2992 91.3458 23.3057 91.4731 23.0538 91.2744C23.1694 91.4783 23.5369 91.8107 23.9225 92.1405C24.0095 92.2483 24.1355 92.3847 24.3238 92.5067C24.3549 92.5275 24.377 92.534 24.3913 92.534L24.4342 92.5768C24.5627 92.6989 24.616 92.7106 24.6523 92.6989C24.7406 92.7521 24.812 92.8002 24.8432 92.8236C24.851 92.8301 24.8575 92.8313 24.864 92.8352L24.8705 92.8508C25.2977 93.4261 26.3885 94.1637 27.1468 94.6831C27.1858 94.6519 27.2234 94.6207 27.1066 94.5311C27.6429 94.7714 28.4051 95.3181 29.1907 95.8518C29.9724 96.3867 30.7788 96.9088 31.332 97.149L31.3554 97.1451C31.358 97.1464 31.3593 97.1477 31.3606 97.149C31.4839 97.2295 31.5969 97.3022 31.7229 97.371C31.7917 97.4087 31.8553 97.423 31.867 97.4061V97.4048C31.8761 97.3853 31.8255 97.3399 31.754 97.3009C31.7021 97.2724 31.6489 97.2412 31.5943 97.2061C31.6008 97.1893 31.5515 97.1581 31.4943 97.1243C31.6631 96.9919 32.6293 97.5996 32.6864 97.3529C32.1735 97.136 31.8281 96.9231 31.9943 96.7919C32.3553 96.9477 32.8773 97.2347 33.3201 97.4425C33.2759 97.7074 33.7512 97.858 34.046 98.0424C34.1291 97.8879 34.0512 97.7736 33.9109 97.6723C33.9823 97.6892 34.0421 97.6957 34.0849 97.6879C34.3602 97.8424 34.7121 98.0073 35.0939 98.1735C35.1134 98.4371 35.1874 98.6878 35.2549 98.941C35.1302 98.8942 35.0134 98.8527 34.9277 98.815C34.8744 98.8553 34.9705 99.0176 34.6342 98.828L34.6355 98.8306L34.5238 98.7631L34.5329 98.7449L34.4992 98.7319C34.5251 98.7345 34.5524 98.7371 34.5758 98.7371C34.5952 98.7371 34.6069 98.7332 34.6108 98.7254C34.6186 98.7098 34.5952 98.6813 34.5459 98.6488C34.4719 98.5995 34.3641 98.5579 34.3057 98.5553C34.2823 98.554 34.2537 98.5514 34.2213 98.5475L34.2161 98.5216L33.9849 98.4125L33.9888 98.4333L33.9083 98.3644C33.8655 98.3268 33.7837 98.2878 33.7265 98.2761C33.6694 98.2645 33.6577 98.2852 33.7018 98.3229L33.7824 98.3917L33.7239 98.3592C33.5512 98.2956 33.1668 98.0437 33.1383 98.1034C33.0344 98.0528 32.9266 98.0034 32.8357 97.9632L32.7942 97.945L32.763 97.9385C32.5877 97.9073 32.5228 97.9437 32.4643 97.9775C32.4319 97.9969 32.3994 98.0151 32.3501 98.0203C32.2449 97.9801 32.1968 97.9476 32.1449 97.8866C32.1137 97.8515 32.0358 97.8035 31.9709 97.7827C31.906 97.7619 31.8774 97.7736 31.9099 97.81C32.0267 97.9463 32.2189 98.0658 32.4838 98.158L32.5241 98.1722L32.5474 98.171C32.6306 98.1684 32.6721 98.1437 32.715 98.119C32.7617 98.0917 32.8072 98.0645 32.9071 98.0775C32.9695 98.1047 33.0409 98.1372 33.111 98.171C33.1422 98.219 33.3201 98.2982 33.3019 98.3346L33.3447 98.3514C33.3447 98.3527 33.3447 98.3527 33.3447 98.354C33.3759 98.4086 33.3383 98.4294 33.2915 98.4449L33.2538 98.4216C33.0474 98.3281 32.963 98.3398 32.9591 98.4229C33.3318 98.6189 33.5343 98.6631 33.6006 98.5917L33.5811 98.5839C33.6032 98.5748 33.6226 98.5618 33.633 98.5449C33.6395 98.5319 33.6395 98.5151 33.6343 98.4956L33.6473 98.5034C33.807 98.5332 34.1615 98.7241 34.3433 98.767L34.5056 98.8657L34.4745 98.8592C34.6965 99.0669 35.2991 99.2435 35.8574 99.5409C35.847 99.511 35.7743 99.4708 35.7691 99.4409C35.8081 99.4565 35.8509 99.476 35.8951 99.4994C35.9522 99.5305 36.0249 99.5526 36.0561 99.5474C36.0639 99.5461 36.0678 99.5435 36.0704 99.5396C36.0756 99.5279 36.0535 99.5058 36.0094 99.4812C35.8717 99.4059 35.712 99.3422 35.5614 99.2994L35.5588 99.2695L35.4406 99.2189C35.4484 99.2163 35.4549 99.2137 35.4614 99.2111C37.1728 99.898 38.8233 100.564 40.4906 101.159C40.4595 101.15 40.4283 101.141 40.3971 101.132C40.1803 101.065 39.9569 100.997 39.731 100.936L39.7414 100.93C39.6518 100.868 38.5662 100.671 38.4065 100.451C38.039 100.351 37.3326 100.207 37.4832 100.328C37.6221 100.385 37.7014 100.402 37.7377 100.386C38.0182 100.537 37.3949 100.35 37.1391 100.266C37.1248 100.256 37.1118 100.249 37.0962 100.238C37.1235 100.15 37.2715 100.075 36.9443 99.9435L36.9222 99.9499C36.8963 99.9149 36.8703 99.8798 36.8313 99.8422L36.8158 99.837L36.7794 99.8201L36.5651 99.7253C36.5171 99.7045 36.469 99.6954 36.4574 99.7058C36.4483 99.7175 36.4768 99.7422 36.5262 99.763L36.6833 99.8318C36.7119 99.8629 36.7339 99.8915 36.756 99.924L36.6911 99.8915C36.5457 99.8668 36.6288 99.9331 36.5041 99.9954C36.3976 99.9487 36.3275 99.9266 36.2833 99.9253C36.2028 99.9006 36.1288 99.8668 36.0483 99.824C36.0094 99.8032 35.9613 99.7889 35.9405 99.7928C35.9198 99.7967 35.934 99.8162 35.973 99.837C36.0561 99.8824 36.195 99.9538 36.3613 99.998L36.3574 100.007C36.4535 100.073 36.6145 100.149 36.8261 100.229L36.8248 100.223C36.8768 100.256 36.9235 100.285 36.969 100.312L36.9339 100.306C37.9247 100.908 38.7389 100.741 39.7881 101.198L39.8297 101.078C39.9998 101.125 40.1725 101.178 40.3569 101.234C40.4958 101.277 40.6335 101.319 40.7711 101.356C40.875 101.384 40.9607 101.386 40.9698 101.36V101.358C40.9698 101.351 40.9659 101.343 40.9581 101.335C41.0022 101.351 41.0464 101.368 41.0905 101.384C41.4827 101.519 41.8775 101.647 42.2722 101.772C42.167 101.747 42.0593 101.719 41.9476 101.681C41.9891 101.813 41.7567 101.796 41.632 101.837C40.5828 101.598 39.9102 101.278 39.2713 101.104C39.2518 101.193 39.0427 101.1 39.2271 101.229C38.4623 101.089 37.5455 100.656 37.1728 100.672C36.7469 100.472 36.3145 100.302 35.886 100.138C36.099 100.212 35.8133 100.064 35.6484 100.004C35.4432 99.9305 35.6432 100.041 35.8081 100.11C35.6484 100.049 35.4899 99.9889 35.3315 99.9292C34.4654 99.5967 33.6499 99.2565 32.9383 98.7111C32.85 98.6449 32.724 98.6527 32.6552 98.7319C32.5851 98.8124 32.6007 98.9293 32.689 98.9968C33.446 99.5773 34.3316 99.9461 35.19 100.275C35.9626 100.571 36.7638 100.854 37.5053 101.26C37.604 101.315 37.7273 101.286 37.7819 101.198L37.791 101.181C37.8234 101.112 37.8039 101.033 37.7481 100.978C37.8026 101.003 37.8468 101.026 37.8819 101.049L37.8624 101.098C37.8585 101.108 37.8883 101.129 37.9299 101.143C37.9715 101.158 38.0091 101.161 38.013 101.151L38.0312 101.104C38.0857 101.123 38.139 101.141 38.1922 101.159C38.0727 101.52 39.057 101.68 39.2219 101.625C39.2219 101.619 39.2206 101.613 39.2206 101.607C39.2219 101.608 39.2258 101.611 39.2258 101.612C39.5816 101.708 39.8933 101.772 40.2517 101.86C40.5283 101.947 40.2621 102.009 40.3166 102.086L40.6958 102.196L40.6555 102.322C40.9529 102.407 41.2516 102.489 41.5502 102.568C41.758 102.476 41.3217 102.374 41.0867 102.272C41.1737 102.265 41.2581 102.257 41.1061 102.208C41.3035 102.186 41.9943 102.434 42.3904 102.508C42.4891 102.412 42.2216 102.317 42.0606 102.221C41.9904 102.085 42.2398 102.124 42.367 102.094C42.5358 102.147 42.4501 102.2 42.4592 102.252C42.6735 102.241 42.9423 102.418 43.2318 102.402C43.3578 102.32 42.6202 101.956 43.3214 102.086C43.7357 102.203 44.1525 102.312 44.5732 102.412C44.5473 102.411 44.5239 102.408 44.4953 102.407L44.459 102.405L44.4499 102.415C44.4252 102.438 44.4135 102.463 44.4044 102.486C43.8863 102.426 44.2979 102.607 43.7435 102.516C43.7798 102.6 44.4226 102.66 44.4979 102.739C44.9394 102.812 44.7304 102.682 45.0134 102.838L45.0446 102.84C45.029 102.85 45.0173 102.859 45.0056 102.87C44.6174 102.883 43.7279 102.642 43.7954 102.864C44.9628 103.074 46.0886 103.413 46.9197 103.385L46.9158 103.379L47.0794 103.412C47.5729 103.562 47.7741 103.635 48.1637 103.738C48.1728 103.759 48.1403 103.779 48.104 103.803C48.0832 103.816 48.0624 103.829 48.0481 103.843C48.0403 103.852 48.0611 103.864 48.0962 103.87C48.0222 103.885 47.9637 103.939 47.9585 104.013C47.9533 104.101 48.0274 104.178 48.1247 104.184C50.0868 104.313 52.0593 104.565 53.989 104.695C55.6277 104.806 57.3366 104.834 58.9857 104.625C59.0766 104.613 59.1416 104.54 59.1364 104.458C59.1364 104.453 59.1364 104.449 59.1351 104.444C59.1221 104.356 59.0338 104.296 58.939 104.308C57.3184 104.513 55.6303 104.486 54.0123 104.375C52.1009 104.247 50.1505 103.999 48.1962 103.869C48.1962 103.869 48.1988 103.869 48.1988 103.868C48.2117 103.855 48.2299 103.843 48.2494 103.83C48.2832 103.809 48.3169 103.787 48.3195 103.762C48.3208 103.751 48.3104 103.738 48.2923 103.725L48.339 103.73C49.0909 103.825 49.3726 103.739 49.9336 103.748C49.3882 103.59 50.4037 103.617 49.9648 103.387H49.918C49.8869 103.351 49.8674 103.313 49.9245 103.283C49.9258 103.283 49.9258 103.282 49.9258 103.281L49.9726 103.288C50.179 103.325 50.3024 103.329 50.5206 103.346C51.0517 103.408 51.5892 103.469 52.1372 103.524C52.11 103.539 52.084 103.556 52.0619 103.574L52.0541 103.569C51.5217 103.463 52.184 103.722 52.0437 103.833C51.958 103.899 51.3763 103.816 51.51 103.944C51.7905 104.02 52.4787 104.004 52.9644 104.02C53.1124 103.905 53.6955 103.9 53.7591 103.76L54.2863 103.756C54.1682 103.74 54.0941 103.714 54.0357 103.683C54.4006 103.709 54.7681 103.731 55.1382 103.749C54.8694 103.825 54.6136 103.9 54.2344 103.946C54.1785 103.949 54.1227 103.952 54.0669 103.955C53.9539 103.959 53.8721 103.985 53.8851 104.012C53.8981 104.04 53.9993 104.06 54.1123 104.056C54.1746 104.053 54.2344 104.051 54.2941 104.047L54.2889 104.052C55.0927 104.042 55.9718 104.148 56.338 103.955C56.4873 103.951 56.638 103.953 56.7951 103.959C57.1639 103.97 57.6249 103.979 58.069 103.82C58.3598 103.818 58.652 103.814 58.9442 103.808C58.9351 103.812 58.926 103.816 58.9182 103.818C58.8546 103.844 58.8689 103.872 58.9481 103.879C59.0273 103.887 59.1416 103.872 59.2052 103.844C59.2234 103.836 59.2377 103.833 59.2545 103.826C59.4428 103.808 59.6272 103.791 59.809 103.775C61.5452 103.701 63.3073 103.531 65.0603 103.227C66.8445 102.92 68.6183 102.413 70.3311 101.842C71.492 101.455 72.623 101.041 73.7333 100.639C73.519 100.773 73.3009 100.928 73.2593 100.998C73.7229 100.89 74.5747 100.545 75.0448 100.175C75.1318 100.145 75.2214 100.112 75.3084 100.081C75.3253 100.076 75.3422 100.072 75.3577 100.066C75.3616 100.089 75.3733 100.11 75.3941 100.129L75.7226 99.9603C75.7707 99.9487 75.8187 99.9357 75.8668 99.9253C75.7953 99.9967 75.8382 100.006 76.1057 99.8733C76.1161 99.8707 76.1265 99.8694 76.1369 99.8668C75.872 100.082 75.7057 100.272 75.298 100.514C74.9461 100.497 74.3903 100.85 74.0878 100.839C73.98 100.959 73.8333 101.086 73.8086 101.189C74.2293 100.908 73.7748 101.251 74.1008 101.164C73.7086 101.402 73.2164 101.78 72.575 101.954C72.7165 101.855 72.7957 101.771 72.8723 101.689C72.9425 101.613 73.0087 101.542 73.1178 101.461L73.1502 101.437L73.1411 101.426C73.1307 101.411 73.1178 101.397 73.0996 101.389L73.0788 101.387L73.0282 101.391C72.9892 101.394 72.9217 101.42 72.8788 101.448C72.8347 101.477 72.8308 101.498 72.8684 101.495L72.9048 101.493C72.9126 101.498 72.9191 101.504 72.9243 101.511C72.8126 101.596 72.7425 101.671 72.675 101.742C72.5945 101.826 72.5152 101.908 72.3737 102L72.3789 101.993C71.8815 102.128 71.7023 102.339 70.992 102.579L70.9752 102.539L71.0531 102.455C71.057 102.451 71.0544 102.45 71.057 102.447L71.0816 102.441C71.2907 102.369 71.2894 102.328 71.4504 102.261L71.3452 102.017C70.7258 102.28 70.6323 102.174 69.9208 102.48C69.8701 102.624 69.6948 102.781 69.6559 102.924C69.8415 102.79 70.6077 102.587 70.7882 102.444C70.7739 102.478 70.6726 102.522 70.6843 102.554L70.7051 102.548L70.6583 102.598C70.3908 102.678 70.2856 102.816 70.0909 102.912C69.9766 102.969 69.4468 103.208 69.4663 103.2C69.1312 103.33 68.2833 103.574 67.995 103.572C67.6145 103.788 67.0068 103.956 66.403 104.099C65.7992 104.244 65.2019 104.366 64.8357 104.523C64.8954 104.436 64.3747 104.575 64.2591 104.484L64.2241 104.495C64.25 104.478 64.2851 104.46 64.324 104.439C64.3838 104.408 64.45 104.375 64.4903 104.34C64.7642 104.281 64.9798 104.201 65.1707 104.129C65.42 104.034 65.6343 103.951 65.9641 103.9C66.0303 103.89 66.103 103.862 66.1264 103.84C66.1329 103.834 66.1342 103.829 66.1329 103.826C66.129 103.814 66.0965 103.811 66.0472 103.818C65.6057 103.887 65.3044 104.003 65.0382 104.103C64.8396 104.178 64.65 104.247 64.4071 104.292L64.2812 104.314L64.263 104.349C64.2513 104.374 64.1929 104.405 64.1254 104.438C64.0786 104.461 64.0293 104.487 63.9903 104.513L63.9825 104.509C63.5852 104.643 63.0891 105.023 62.5282 104.934C62.5489 104.899 62.5632 104.869 62.5619 104.844V104.843C62.5567 104.818 62.4736 104.814 62.3736 104.831C62.2698 104.849 62.1879 104.883 62.1892 104.908C62.1892 104.931 62.1724 104.964 62.1451 105.003L62.1191 105.005C61.6451 105.127 60.692 105.113 60.0726 105.283C59.8181 105.31 59.9726 105.183 59.7804 105.187C59.5155 105.288 58.6741 105.312 58.5637 105.423C57.5535 105.37 56.1277 105.413 54.9849 105.319C54.7979 105.388 54.7979 105.497 54.4434 105.528C54.1798 105.475 53.9357 105.414 53.7578 105.338C53.6539 105.408 53.1462 105.448 52.6268 105.447C52.1074 105.447 51.5789 105.406 51.4347 105.354C51.1205 105.384 50.5335 105.325 50.2336 105.348C50.0687 105.323 49.905 105.303 49.744 105.283C49.6233 105.267 49.5025 105.253 49.3856 105.235C49.3233 105.226 49.2584 105.222 49.2038 105.223C48.5974 105.138 47.8456 104.993 47.0768 104.965C46.9418 104.925 46.9483 104.871 46.6808 104.843C46.6379 104.757 46.9392 104.808 46.8418 104.7C46.0172 104.549 45.364 104.556 44.968 104.366C44.7862 104.438 44.3304 104.388 43.8642 104.322C43.9577 104.248 43.3201 104.216 42.9552 104.026L42.9228 104.155C42.5683 104.075 42.2151 103.991 41.8619 103.904C41.8112 103.82 42.0917 103.909 42.1437 103.878C42.2372 103.898 42.2605 103.908 42.2605 103.908C42.3125 103.933 42.3969 103.951 42.4488 103.949C42.4722 103.948 42.4852 103.943 42.4878 103.935C42.4904 103.926 42.4774 103.914 42.4501 103.901C42.3436 103.851 42.1748 103.813 42.019 103.785L42.0385 103.777C41.4814 103.535 40.1231 103.176 39.7907 103.235C39.4583 103.127 39.9868 103.234 39.8323 103.109C39.344 102.933 38.9882 102.907 39.2713 103.077C39.0129 102.996 39.1349 102.94 38.7739 102.851L38.7752 102.856C38.7155 102.834 38.6558 102.812 38.5922 102.79C38.5545 102.777 38.5207 102.769 38.4883 102.763C38.4428 102.744 38.3961 102.726 38.3467 102.708C38.3169 102.696 38.2883 102.689 38.2623 102.683L38.2597 102.681C38.461 102.664 38.1364 102.544 37.7598 102.402C37.3819 102.259 36.9521 102.09 36.93 102.002C36.5054 101.843 36.2457 101.793 36.0094 101.758C36.2171 101.92 36.582 102.059 37.0962 102.311L37.2079 102.344C37.1482 102.347 37.1092 102.356 37.0755 102.365L37.0573 102.369C37.0534 102.37 37.0534 102.372 37.0508 102.374C37.0066 102.378 36.93 102.36 36.9183 102.386C36.8002 102.308 36.6846 102.23 36.5742 102.152C35.8886 101.964 35.0458 101.643 34.3083 101.294C33.959 101.129 33.6343 100.959 33.359 100.799C33.3447 100.733 33.324 100.667 33.2928 100.604C33.3902 100.638 33.4954 100.676 33.6499 100.755C33.5876 100.694 33.5291 100.634 33.6798 100.697C33.5304 100.568 33.3551 100.486 33.1681 100.402C33.0071 100.199 32.7591 100.015 32.4488 99.8422C32.3682 99.6786 32.2501 99.5383 32.1033 99.437C32.0462 99.3968 31.967 99.4046 31.928 99.4552C31.8865 99.5045 31.9021 99.5786 31.9605 99.6188C32.0891 99.7084 32.1903 99.8461 32.2501 100.002L32.1709 99.9837C31.9644 99.9435 31.6553 99.5474 31.506 99.6876C31.3645 99.6123 31.2216 99.5383 31.0775 99.4656C31.1424 99.4812 31.2112 99.4994 31.2723 99.5098L31.2645 99.4994C31.432 99.5838 31.5541 99.6331 31.6956 99.6851C31.7333 99.6993 31.7592 99.7006 31.7644 99.6915C31.767 99.6876 31.7644 99.6812 31.7592 99.6734C31.7397 99.6474 31.68 99.611 31.6268 99.5916C31.5125 99.55 31.4216 99.5123 31.2995 99.4513H31.306C31.2463 99.3046 30.5295 99.0215 30.1322 98.8085L30.1348 98.8176C29.9945 98.728 29.853 98.6462 29.7153 98.5683C29.6114 98.5086 29.5153 98.4514 29.4244 98.393C29.3439 98.2839 29.1595 98.1645 28.9635 98.0593C28.931 98.0229 28.9024 97.9827 28.8739 97.945C28.9336 97.932 28.9855 97.919 29.0271 97.906C29.3167 98.0723 29.6024 98.2618 29.8828 98.4423C30.2711 98.693 30.6788 98.9462 31.1126 99.1358C31.1814 99.1656 31.258 99.1461 31.2944 99.0903C31.2982 99.0851 31.3021 99.0786 31.3047 99.0721C31.3359 99.0046 31.2982 98.9228 31.2242 98.8903C30.8126 98.7111 30.4178 98.4644 30.04 98.2203C29.7361 98.0242 29.4244 97.819 29.1037 97.6385L29.0349 97.5996L28.9661 97.6295C28.9362 97.6424 28.857 97.6684 28.657 97.7022C28.2973 97.5541 28.0389 97.2724 27.7714 96.9711C27.5351 96.7049 27.2948 96.4283 26.9715 96.2244C26.9001 96.179 26.8079 96.1972 26.7637 96.2569C26.7209 96.3205 26.743 96.4101 26.8157 96.4543C27.0481 96.601 27.2351 96.7945 27.4221 97.0036C27.2689 96.8581 26.7482 96.5776 26.7313 96.4776C26.3638 96.3192 26.7702 96.7426 26.9196 96.8906L26.9507 96.9075C26.9313 96.9088 26.9157 96.9127 26.9014 96.9192L26.9001 96.9179C26.4586 96.6244 26.1872 96.4231 25.8729 96.1972C25.56 95.9699 25.2029 95.7193 24.6082 95.3025C24.6523 95.2388 24.7017 95.1778 24.8484 95.2401ZM16.1612 85.8426L16.1157 85.7907L16.1456 85.8023C16.2819 85.9621 16.4183 86.1854 16.5286 86.3763C16.4196 86.4153 16.1417 86.0335 15.9417 85.8309C15.9794 85.7426 16.1443 85.9828 16.1612 85.8426ZM11.2514 77.3943C11.302 77.2424 11.3799 77.1709 11.4786 77.1463C11.5864 77.693 12.1435 78.4552 12.4876 79.2045L12.5499 79.1772L12.533 79.1317L12.5746 79.198C12.646 79.3109 12.7161 79.4174 12.7811 79.533C12.7837 79.5408 12.785 79.5473 12.7875 79.5551C12.6382 79.4551 12.546 79.4421 12.4889 79.5148C12.3928 79.4343 12.3902 79.5187 12.3616 79.259C12.2461 79.2473 12.0669 78.8915 11.9747 79.0071C11.7201 78.476 11.4812 77.9371 11.2514 77.3943ZM88.9574 98.976C88.4107 99.3734 87.864 99.7617 87.3186 100.149C87.2524 100.143 87.1952 100.153 87.29 100.047L87.3783 99.9655C87.4744 99.8759 87.5601 99.7954 87.6536 99.6954L87.8393 99.5474C88.0679 99.402 88.1341 99.4591 88.3068 99.3838C88.786 98.9475 89.4586 98.4488 89.8365 97.8983C89.6586 97.9866 89.4833 98.0697 89.4495 97.9554C90.4169 97.2581 91.3142 96.4517 92.1414 95.718C93.1192 94.8519 93.9996 94.0857 94.8605 93.7169C93.0828 95.8414 91.0181 97.4762 88.9574 98.976ZM17.3636 97.3243L17.6545 97.0542L18.0064 97.3944C17.8298 97.7165 17.5766 97.3347 17.3636 97.3243ZM19.9256 94.3571L19.9139 94.3519C19.9139 94.3428 19.9126 94.3338 19.9126 94.326C19.9126 94.287 19.91 94.2442 19.9049 94.2C20.036 94.3 20.1373 94.3545 20.1723 94.3091C20.7203 94.8973 21.067 95.0311 21.3397 95.2973C21.0826 95.0882 21.393 95.4635 21.4826 95.5505C21.8332 95.8608 22.2279 95.9336 22.4097 96.1855C22.1773 96.0037 22.1241 96.0556 22.0851 96.1271L22.0487 96.1011C21.9838 96.053 21.915 96.0037 21.8475 95.9556L21.8643 95.9569C21.5968 95.7531 21.6722 95.7193 21.3527 95.4843C21.3904 95.5518 21.4267 95.618 21.3904 95.6479C21.0385 95.4258 20.5944 95.0713 20.084 94.5909C20.0607 94.5298 20.036 94.4675 19.9256 94.3571ZM38.3467 102.79C38.3571 102.794 38.3675 102.798 38.3766 102.802C38.3376 102.798 38.2987 102.791 38.2519 102.783C38.2052 102.774 38.1831 102.783 38.2065 102.804C38.2286 102.824 38.2857 102.847 38.3337 102.856C38.4026 102.869 38.4636 102.876 38.5246 102.879C38.5324 102.882 38.5376 102.886 38.5454 102.889C38.5688 102.896 38.5896 102.904 38.6116 102.913C38.461 102.93 38.7155 103.2 38.1429 103.033C38.0636 102.889 37.9078 102.938 37.5092 102.781C37.4962 102.694 37.5754 102.669 37.6975 102.67C37.6014 102.618 37.5027 102.567 37.33 102.505C37.3326 102.505 37.3378 102.505 37.3391 102.505L37.3572 102.5C37.3676 102.498 37.378 102.495 37.3884 102.492C37.7338 102.612 38.1403 102.766 38.3467 102.79ZM37.7923 103.577C37.9104 103.498 38.1948 103.525 38.6493 103.649C38.5285 103.705 38.8999 103.796 39.0129 103.868C40.4698 104.307 40.9763 104.575 42.0411 104.87L42.0242 104.934L42.0528 104.939C42.0372 104.955 42.0242 104.971 42.0112 104.988C42.0021 105 41.9943 105.012 41.9839 105.023C40.5127 104.603 39.0674 104.1 37.6637 103.531C37.7065 103.546 37.7442 103.56 37.7923 103.577ZM43.8019 104.652C43.9837 104.695 44.0175 104.501 44.22 104.669C44.0382 104.626 44.0045 104.821 43.8019 104.652ZM45.0511 105.426C45.7147 105.575 45.986 105.551 46.4198 105.679C45.7796 105.608 45.5978 105.717 45.1394 105.709C45.0706 105.617 44.9706 105.526 45.0511 105.426ZM49.3428 105.354C49.448 105.37 49.5531 105.384 49.6596 105.397C49.809 105.416 49.9505 105.434 50.0816 105.454C50.4387 105.71 51.7334 105.614 52.806 105.666C53.0319 105.744 53.1657 105.795 53.6306 105.739C53.4111 105.84 52.7151 105.861 52.01 105.823C51.3049 105.788 50.5907 105.695 50.3271 105.628C50.3076 105.718 50.5517 105.71 50.3167 105.761C49.8414 105.713 49.0052 105.706 48.9467 105.584C49.3129 105.587 48.8779 105.319 49.3428 105.354ZM56.4003 105.927C56.9276 105.882 57.2834 105.882 57.5119 105.919C57.5106 105.887 57.7508 105.858 57.7885 105.897C57.6197 105.915 57.4613 105.934 57.5171 105.986C57.1275 105.886 56.7756 106.106 56.2666 106.034C56.3744 106.021 56.5406 106.017 56.5419 105.986C56.5406 105.952 56.4276 105.952 56.4003 105.927ZM56.8081 106.632C57.6508 106.595 58.491 106.544 59.126 106.565C58.8195 106.653 58.1313 106.745 57.4574 106.797C56.7847 106.85 56.1277 106.863 55.89 106.843C55.3888 106.845 55.5472 106.974 55.046 106.971C54.8291 106.974 54.6278 106.974 54.4331 106.975C54.324 106.963 54.2136 106.954 54.1058 106.941L54.1175 106.736C54.2006 106.726 54.2824 106.714 54.3499 106.7C54.3707 106.701 54.3915 106.704 54.4123 106.705C54.5798 106.719 54.7681 106.731 54.946 106.67C55.5056 106.682 56.1575 106.661 56.8081 106.632ZM59.548 106.517C60.0311 106.504 60.5141 106.321 60.6686 106.373C60.7582 106.491 59.9155 106.634 59.548 106.517ZM64.0539 104.77L64.0695 104.834C63.8825 104.912 63.7475 104.939 63.6553 104.887C63.8423 104.851 63.9488 104.81 64.0539 104.77ZM67.1172 104.42C67.4276 104.382 66.9731 104.544 67.2808 104.477C67.2821 104.455 67.2899 104.434 67.4055 104.407C67.4353 104.549 66.6757 104.691 66.3407 104.734C66.4225 104.71 66.4978 104.687 66.4653 104.666C66.3602 104.687 66.2004 104.735 66.1874 104.705C66.5705 104.545 66.8718 104.534 67.1172 104.42ZM66.6393 104.277C67.1834 103.96 67.7236 103.99 68.3313 103.679C68.6391 103.657 68.4599 103.833 68.2742 103.94C67.821 104.012 66.7796 104.4 66.6393 104.277ZM52.5813 103.652C52.4281 103.655 52.3476 103.639 52.319 103.612L52.2385 103.616C52.2658 103.59 52.3008 103.566 52.3398 103.544C52.4398 103.553 52.5424 103.562 52.6424 103.572C52.5216 103.583 52.4775 103.608 52.5813 103.652ZM48.6792 103.139C47.7819 103.052 48.2806 103.498 47.2002 103.325L47.2041 103.33L47.0664 103.303C47.0547 103.273 46.908 103.257 46.8132 103.237C46.8807 103.092 47.5092 103.176 47.8871 103.148C47.8391 102.957 47.0638 103.048 46.8717 102.879C46.8794 102.873 46.895 102.87 46.9132 102.868C46.9522 102.873 46.9898 102.881 47.0288 102.886C47.2365 102.916 47.4495 102.946 47.6612 102.974C47.7131 103.004 47.9001 103.027 48.0053 103.022C48.5013 103.091 49.0103 103.159 49.5259 103.225C49.535 103.237 49.5531 103.247 49.5869 103.259H49.6038C49.5687 103.291 49.5765 103.326 49.5986 103.36L49.5778 103.356C49.3441 103.355 49.0337 103.324 48.9182 103.36C48.3857 103.281 49 103.234 48.6792 103.139ZM46.3042 103.092C45.7653 103.011 46.2743 103.109 46.2925 103.157C45.9185 103.095 45.4394 103.034 45.2615 102.95L45.255 102.947C45.2615 102.944 45.268 102.943 45.2705 102.94C45.2783 102.931 45.2874 102.925 45.2965 102.917C45.4692 102.917 45.6744 102.931 45.803 102.909L45.777 102.882C45.9068 102.92 46.0588 102.952 46.2224 102.957L46.1912 102.973C46.1458 103.021 46.3042 103.05 46.3042 103.092ZM44.5784 102.52C44.5862 102.5 44.594 102.482 44.6096 102.464C44.6472 102.467 44.6771 102.469 44.7031 102.472L44.6927 102.474C44.8537 102.513 44.8394 102.603 44.6719 102.572C44.6979 102.55 44.6447 102.534 44.5784 102.52ZM26.1586 93.4962C26.1664 93.6897 25.4405 93.0729 25.6288 93.3378C25.3392 93.1157 24.9951 92.8054 24.8172 92.7262L24.8224 92.7392C24.7497 92.6872 24.6354 92.6119 24.5082 92.5405L24.5017 92.508C24.3601 92.3054 24.3056 92.3457 24.1926 92.3184C24.1511 92.2808 24.1134 92.2392 24.0732 92.1899L24.0926 92.2042C24.4303 92.3509 24.2615 92.0405 24.8562 92.4976C24.9003 92.6651 25.7249 93.3157 26.0586 93.4196C25.7717 93.0898 25.3315 92.8275 25.3055 92.5639C25.4964 92.6171 25.7756 92.7781 26.0989 92.9924C26.3534 93.2053 26.5858 93.4378 26.8131 93.665C27.0819 93.9325 27.3637 94.2078 27.6857 94.4299L27.7441 94.4701L27.8467 94.4052L27.8688 94.4506C28.4077 94.5246 28.7064 94.9713 29.1037 95.357C28.6791 95.1583 28.3103 95.0012 28.0597 94.8714C28.0441 94.8662 28.0246 94.8571 27.9961 94.8376C28.0155 94.848 28.0389 94.8597 28.0597 94.8714C28.1012 94.8843 28.1116 94.8597 28.1402 94.8571C27.7688 94.7844 26.9572 94.0676 26.1586 93.4962ZM23.9394 92.0925V92.0899L23.9459 92.0938L23.9394 92.0925ZM21.8501 89.6486C21.8812 89.6045 21.6449 89.4032 21.7501 89.4032C21.8773 89.5408 22.0838 89.7226 22.0773 89.7811C22.0033 89.7174 21.902 89.6071 21.876 89.6265C21.9241 89.6746 21.9539 89.746 21.8501 89.6486ZM21.1787 88.9072C20.9697 88.7007 20.8164 88.5994 20.558 88.2865V88.2955C20.4334 88.128 20.2892 87.9761 20.1594 87.8398C20.1178 87.7969 20.0828 87.7553 20.0451 87.7138C20.0386 87.6632 20.0425 87.632 20.0581 87.6138C20.1931 87.7281 20.3347 87.8514 20.384 87.7865C20.8307 88.254 21.4618 89.0033 21.2047 88.8838C21.1372 88.7448 21.1735 88.8474 21.1787 88.9072ZM20.5113 88.4877C20.4944 88.5449 20.4009 88.4527 20.358 88.4579C20.3256 88.4228 20.2931 88.3877 20.2606 88.3501C20.2451 88.28 20.0464 88.0592 20.0126 88.0839L20.0308 88.1163C19.9477 88.0384 19.8698 87.954 19.7971 87.8605C19.7724 87.7696 19.8217 87.7255 19.9061 87.7541C19.9373 87.7787 19.9659 87.7982 19.9867 87.8021L20.0048 87.806C20.0425 87.8475 20.0802 87.8904 20.1178 87.9294C20.2386 88.0566 20.3451 88.1683 20.4269 88.2826L20.3957 88.2605C20.4061 88.3514 21.0852 89.0526 20.6294 88.7189C20.6139 88.6552 20.6009 88.5955 20.5113 88.4877ZM20.845 96.0258C20.9969 96.1582 21.1268 96.2582 21.232 96.3244C21.1969 96.3387 21.1631 96.3569 21.1307 96.379C21.0606 96.3426 20.9839 96.2946 20.9242 96.253C20.9086 96.2309 20.8917 96.2089 20.8749 96.1868C20.8788 96.1881 20.8801 96.1894 20.8839 96.1907C20.9502 96.2452 21.0151 96.2946 21.0151 96.2569C20.8995 96.1504 20.8736 96.0881 20.845 96.0258ZM60.8946 109.837C60.8543 109.844 60.8154 109.85 60.7777 109.855C60.483 109.827 60.1856 109.836 59.8921 109.844C59.6882 109.849 59.4792 109.853 59.2792 109.841L59.2922 109.805C58.8182 109.671 58.1482 109.705 57.495 109.708C57.3911 109.71 57.2885 109.708 57.186 109.707C57.4054 109.619 57.9131 109.571 57.9638 109.454C58.4871 109.472 58.8026 109.553 59.3325 109.559C59.5129 109.644 59.3545 109.632 59.3558 109.755C59.8778 109.788 60.6583 109.718 60.8946 109.837ZM63.2255 109.105C64.1942 108.881 64.2461 109.014 65.1785 108.851C65.2161 108.987 64.7889 109.116 64.2708 109.222C63.754 109.328 63.1476 109.409 62.8346 109.475C63.3073 109.349 63.4527 109.17 63.2255 109.105ZM57.2691 111.262C56.4198 111.208 55.4083 111.264 54.4525 111.246C54.1695 111.241 53.8942 111.229 53.6293 111.208H53.6306C54.7161 111.263 55.9381 111.255 57.3002 111.182C57.3275 111.201 57.3522 111.22 57.3768 111.241C57.3392 111.247 57.3041 111.254 57.2691 111.262ZM59.8584 110.933C59.861 110.933 59.8636 110.932 59.8674 110.932C60.4687 110.855 61.0244 110.791 61.2023 110.86C60.7985 110.906 60.5414 110.959 60.5998 111.039C60.4492 111.039 60.3154 111.051 60.1947 111.065C60.0791 111.027 59.9661 110.981 59.8584 110.933ZM55.8264 109.272C55.8965 109.15 56.1666 109.199 56.3977 109.215C56.2393 109.251 56.0173 109.277 55.8264 109.272ZM39.3375 106.519C39.0869 106.443 38.9999 106.456 39.0272 106.532C38.6623 106.44 38.4402 106.357 38.2091 106.27C38.387 106.27 38.5493 106.249 38.8428 106.318C39.0051 106.386 39.1791 106.453 39.3375 106.519ZM31.0515 101.976C30.9762 101.882 30.9295 101.78 30.9373 101.685C31.0022 101.752 31.1229 101.808 31.2476 101.863C31.2567 101.957 31.1762 101.987 31.0515 101.976ZM68.1041 109.992C68.0846 109.964 68.056 109.949 68.0327 109.937C68.0236 109.932 68.0158 109.928 68.0093 109.923L68.0028 109.902C68.0041 109.902 68.0054 109.901 68.008 109.901C68.2456 109.886 68.5144 109.854 68.7962 109.808C68.6157 109.855 68.3729 109.936 68.0885 110.016C68.1002 110.008 68.108 110.001 68.1067 109.995L68.1041 109.992ZM66.6588 108.54C66.7549 108.492 67.4548 108.262 67.5366 108.314C67.3224 108.42 67.286 108.52 66.6848 108.636L66.6588 108.54ZM65.3927 110.573C66.2329 110.373 66.9562 110.177 67.7015 109.98L67.7249 109.976C67.7145 109.984 67.708 109.992 67.7145 109.997C67.7249 110.006 67.7392 110.015 67.7548 110.023C67.7756 110.034 67.8002 110.047 67.8171 110.071C67.8197 110.073 67.8262 110.076 67.834 110.077C67.7275 110.138 67.5068 110.105 67.2756 110.19C67.1471 110.307 66.9964 110.428 66.6666 110.549C66.2342 110.579 65.8096 110.586 65.3927 110.573ZM69.017 109.77C69.2234 109.733 69.4338 109.693 69.6429 109.65C69.4663 109.719 69.2962 109.789 69.1364 109.86C69.1429 109.793 69.0962 109.77 69.017 109.77ZM27.6987 94.1974C27.5182 94.0624 27.3507 93.913 27.1845 93.7546C27.3689 93.8884 27.5546 94.0221 27.7351 94.152C27.7234 94.1663 27.7104 94.1792 27.6987 94.1974ZM19.9542 79.011C19.7451 78.524 19.6412 78.4916 19.3854 78.076C19.3426 77.8553 19.5283 77.9293 19.6309 77.954C19.8464 78.4007 20.2061 78.8941 20.2762 79.085C20.2022 79.2045 20.0789 79.1084 19.9542 79.011ZM17.3935 73.8752C17.3831 73.8506 17.374 73.8259 17.3649 73.8012C17.4818 73.9869 17.6168 74.1479 17.7778 74.2726C17.7934 74.2518 17.8038 74.2297 17.8168 74.2077C17.9324 74.4349 18.0155 74.8803 18.1194 74.8414C18.2375 74.8803 18.0999 74.6193 18.1648 74.5933C18.2713 74.9219 18.3349 74.7673 18.4297 74.9517C18.3739 75.0219 18.6725 75.488 18.5518 75.4815C18.492 75.3192 18.4479 75.3075 18.4076 75.3101C18.3959 75.2881 18.3856 75.2673 18.3726 75.2426C18.344 75.1855 18.3089 75.1543 18.2947 75.1712C18.2804 75.1881 18.2921 75.2491 18.3206 75.3049C18.3414 75.3452 18.3661 75.3919 18.392 75.44L18.3804 75.4348C18.4661 75.8192 18.6777 76.049 18.8063 76.4282C18.7245 76.4892 18.8387 76.8801 18.6829 76.7204C18.2453 75.8412 17.7934 74.8647 17.3935 73.8752ZM86.9797 100.236L86.8797 100.302C86.4603 100.632 86.0941 100.884 85.8603 100.984C85.9564 100.89 86.0343 100.804 86.1174 100.716C86.1473 100.71 86.1759 100.706 86.2057 100.704C86.285 100.701 86.3551 100.639 86.3616 100.567C86.3642 100.538 86.3564 100.512 86.3408 100.493L86.3395 100.491C86.4901 100.349 86.6849 100.184 86.9901 99.9629L87.0329 100.014L87.0758 99.9746C86.9992 100.099 86.9732 100.189 86.9797 100.236ZM81.4089 104.209C81.3947 104.117 81.4778 103.992 81.8414 103.772L81.8777 103.827L81.9011 103.811C81.8972 103.864 81.9219 103.901 81.9777 103.925L81.9517 103.939C81.9478 103.953 81.9271 103.974 81.8985 103.998C81.7375 104.072 81.5739 104.142 81.4089 104.209ZM23.6641 84.1688C23.768 84.1441 23.8057 84.1065 23.8161 84.0701C23.8381 84.0857 23.8576 84.0974 23.8732 84.1L23.9238 84.1065C24.5004 84.8012 24.8964 85.0596 25.5483 85.7413C25.5392 85.9088 24.9705 85.3569 24.6913 85.1765C24.79 85.3063 24.6289 85.1726 24.6134 85.2414C25.1393 85.801 25.6353 86.3127 25.9457 86.7165C25.6989 86.623 25.3133 86.3231 24.9458 85.9621C24.5783 85.6011 24.229 85.1777 24.0368 84.857C24.3134 85.2011 24.3485 85.0115 24.442 84.9544C24.2199 84.6116 23.9018 84.3441 23.6641 84.1688ZM28.9881 89.3123C28.3609 88.9565 27.5857 88.3527 26.7819 87.606L26.8546 87.5346C27.7493 88.0709 28.3233 88.8435 28.9881 89.3123ZM52.2775 89.5499C52.6346 89.598 53.141 89.6746 53.5773 89.7149C53.9539 89.7499 54.472 89.5616 54.498 89.9278C54.3824 90.0927 54.2032 90.1512 54.0019 90.1719C53.998 90.1563 53.9967 90.1395 53.9993 90.1226C53.7409 90.0447 53.3267 90.0187 53.0995 89.9226C52.2411 89.8681 51.7646 89.6759 51.162 89.5071C51.3555 89.5149 51.5451 89.5369 51.7308 89.6058C51.784 89.6265 51.8451 89.5811 51.8658 89.5071L51.871 89.4876C51.8827 89.4188 51.8568 89.3539 51.8087 89.337C51.4867 89.2162 51.1581 89.2227 50.8374 89.224C50.6673 89.2253 50.5011 89.2214 50.3414 89.2019C50.3141 89.1513 50.2907 89.098 50.3323 89.0292C49.9635 88.9799 49.6077 88.9448 49.2532 88.9033C49.2999 88.8331 49.3506 88.7695 49.409 88.7306L50.7932 88.9357C51.2075 88.9903 51.6373 89.0344 52.271 89.0292C52.5839 89.1097 51.9606 89.4668 52.2775 89.5499ZM55.059 89.9655C55.4563 89.6629 55.8121 89.7356 56.1666 89.872C56.5198 90.007 56.873 90.2057 57.2171 90.1499C57.3158 89.9979 57.2665 89.9551 57.2275 89.8187C57.3132 89.7785 57.4106 89.7447 57.4989 89.7226L57.4924 89.7603C57.3652 90.1187 57.7534 90.1706 58.2391 90.1226C58.7247 90.0745 59.2974 89.9213 59.5571 89.9161L59.5402 89.8642C59.8272 89.9278 60.1518 89.8953 60.457 89.7629C60.4985 89.7447 60.5219 89.6889 60.5141 89.6291C60.5128 89.6201 60.5115 89.611 60.5089 89.6006C60.4882 89.5331 60.4336 89.4954 60.3856 89.5162C60.1324 89.6278 59.8661 89.6603 59.6246 89.6214L59.6155 89.524L59.5675 89.5408L59.6337 89.4305C59.6506 89.4006 59.6584 89.3629 59.6545 89.3266C59.6506 89.2902 59.6376 89.2539 59.6142 89.2279C59.5688 89.1747 59.5052 89.1811 59.4701 89.2396L59.4052 89.3487L59.4091 89.2811C59.4156 89.176 59.3675 89.1643 59.3156 89.1617V89.1526C59.3143 89.0799 59.3143 89.0084 59.3169 88.9331C59.5246 88.8708 59.7441 88.8591 59.9752 88.8474C60.0181 88.8448 60.0596 88.8422 60.1025 88.8396C60.5336 89.4006 60.7362 89.111 61.3023 88.9461L61.3582 89.3032C61.3387 89.3123 61.3205 89.3201 61.2984 89.3279C61.2465 89.3474 61.2205 89.424 61.24 89.498C61.2608 89.572 61.3192 89.6149 61.3725 89.5967C61.4153 89.5798 61.4556 89.5616 61.4958 89.5395L61.4932 89.5707C61.7036 89.5408 61.9127 89.5084 62.123 89.4733C62.2672 89.5408 62.4074 89.5512 62.5437 89.5577C62.5892 89.5603 62.6346 89.5629 62.6801 89.5668C63.0735 89.8759 63.7137 89.6603 64.2773 89.5733L64.2565 89.5305C64.6915 89.4149 65.1551 89.3357 65.6044 89.25C66.3004 89.1162 67.0224 88.9513 67.621 88.602C67.6288 88.5981 67.634 88.5903 67.6392 88.5838L67.6483 88.5968C68.3599 88.3163 69.2416 88.106 69.7221 87.6528L69.6896 87.6112C69.8026 87.5813 69.9143 87.5502 70.0246 87.5177C70.3649 87.4203 70.6869 87.3242 71.0336 87.2515C71.4297 87.5281 70.8427 87.7852 70.7661 88.0423L70.7999 88.0852C70.7401 88.1021 70.6791 88.1163 70.6168 88.1293C70.4246 88.1696 70.2129 88.2111 70.061 88.3773L70.0558 88.3579C69.6987 88.5267 69.1702 88.5799 68.7287 88.6643C68.2859 88.75 67.9262 88.8695 67.882 89.2019C67.4652 89.2409 66.9146 89.3526 66.4004 89.5162C65.8862 89.6798 65.4057 89.894 65.1304 90.1641L65.133 90.168C64.1539 90.0732 63.2839 90.3823 62.4087 90.6524C62.1438 90.7355 61.8685 90.8147 61.5958 90.8783L61.5971 90.8589C60.9193 90.877 60.1375 90.8524 59.361 90.8563C58.665 90.8602 57.9742 90.8887 57.347 91.0095C56.9509 90.9511 56.5692 90.8082 55.8277 90.8757C55.5121 90.803 55.2459 90.668 55.1278 90.3615C55.1278 90.3615 55.1278 90.3615 55.1291 90.3615L55.1758 90.3641C55.1784 90.3641 55.1797 90.3615 55.1823 90.3615C55.3537 90.3719 55.5901 90.4771 55.5212 90.1239C55.3265 90.0603 55.2667 90.2005 55.1369 90.233C55.1252 90.1226 55.0512 90.094 55.059 89.9655ZM57.3937 89.2824L57.395 89.3642C57.2937 89.3928 57.1912 89.4357 57.1003 89.4824C57.0223 89.4045 56.8847 89.411 56.8509 89.2707C57.0353 89.2188 57.2301 89.2448 57.3937 89.2824ZM59.0338 89.1383V89.1799C58.9416 89.5383 58.539 89.5045 58.4196 89.185C58.5871 89.0033 58.8143 88.8578 59.0364 88.9098C59.0338 88.9903 59.0338 89.0656 59.0338 89.1383ZM62.6645 89.2461L62.6788 89.2772C62.6268 89.272 62.5749 89.2656 62.523 89.2643C62.4035 89.2591 62.2892 89.2513 62.1802 89.2019L62.184 89.1993C62.4308 88.6345 62.8956 89.1357 63.0995 88.6384C63.3904 88.5293 63.5306 88.7773 63.7267 88.902C63.332 88.9864 62.9047 89.0279 62.6645 89.2461ZM65.0681 87.9696L65.0694 87.9735C65.0954 88.0345 65.1226 88.0943 65.1499 88.1553C64.9058 88.3462 64.5915 88.4241 64.2851 88.4903C64.2253 88.3254 64.2968 88.2735 64.2838 88.1501C64.5409 88.0488 64.8006 87.9488 65.0681 87.9696ZM66.2485 87.4372C66.3368 87.5203 66.4523 87.506 66.5186 87.6722L66.4251 87.7229C66.129 87.8878 65.8148 88.0501 65.4797 87.9774C65.4525 87.9164 65.4239 87.8553 65.3966 87.7956C65.5927 87.6255 65.8524 87.5541 66.1056 87.4814C66.155 87.4671 66.2017 87.4515 66.2485 87.4372ZM64.2396 89.1383C64.1358 89.024 64.1461 88.9331 64.2994 88.9033L64.2695 88.8422L64.3513 88.8241C64.685 88.7513 65.059 88.663 65.346 88.4215C65.3759 88.4332 65.4044 88.4358 65.4343 88.4293C65.8927 88.5565 66.29 88.354 66.6315 88.1644L66.777 88.0852C66.9692 88.1735 67.2432 87.9787 67.3717 88.3007C66.8198 88.6033 66.1537 88.7552 65.5109 88.8773C65.0889 88.9565 64.6552 89.0331 64.2396 89.1383ZM70.9557 86.9477L70.9869 86.9827C70.6181 87.0567 70.2817 87.158 69.9259 87.2593L69.6597 87.3333C69.4922 87.1996 69.2247 87.5658 69.1053 87.2074C69.4026 87.1321 69.8221 86.8191 70.2597 86.5516C70.7012 86.2854 71.1609 86.0647 71.5998 86.1893C71.6231 86.5555 71.131 86.675 70.9557 86.9477ZM63.6722 91.3679C63.4904 91.3835 63.019 91.6003 63.0619 91.3731C62.3879 91.5783 61.527 91.7406 61.0011 91.9185C60.7816 91.9406 60.9206 91.7458 60.8452 91.6808C60.3817 91.7185 59.7545 91.9146 59.1494 92.0626C59.0299 92.0172 58.9676 91.9431 58.9117 91.8652C59.8025 91.7536 60.7089 91.5614 61.6607 91.2367L61.649 91.2082C61.936 91.1432 62.223 91.0588 62.4996 90.9731C63.3865 90.6992 64.2669 90.3823 65.2382 90.4979L65.2395 90.5316C65.9823 90.6316 66.8692 90.3654 67.7509 89.9694C68.5703 89.6032 69.3832 89.1279 70.1389 88.7539C70.1805 88.7578 70.2194 88.7435 70.2428 88.7046C70.2441 88.7033 70.2454 88.702 70.2454 88.7007C70.2688 88.689 70.2934 88.676 70.3168 88.6656L70.2817 88.6513C70.3882 88.5293 70.5583 88.4955 70.7362 88.4592C70.7843 88.4501 70.8336 88.4384 70.8804 88.4267C71.4998 88.4254 72.1893 87.9722 72.7658 88.2228C71.4621 89.0669 69.935 89.7837 68.2664 90.3628C67.2639 90.7108 66.2082 91.0082 65.1071 91.2601C65.111 91.2341 65.0993 91.2121 65.0616 91.1965C64.959 91.2341 64.9136 91.2718 64.8837 91.3095C64.5214 91.39 64.1526 91.464 63.7812 91.5341C63.7319 91.4705 63.7046 91.4004 63.6722 91.3679ZM75.7447 83.9311C76.0356 84.0883 75.8603 84.4571 76.0745 84.3402C76.3498 84.3493 76.6498 84.1194 76.9147 83.8779C77.1796 83.6364 77.4094 83.3832 77.5692 83.3481C77.8159 83.8013 77.3082 83.8844 77.1549 84.0182C76.9355 84.209 76.6238 84.3675 76.3992 84.5908C76.0174 84.9726 75.859 85.653 75.4616 85.8842C75.1954 86.0387 74.6864 86.1088 74.1865 86.101C73.6852 86.0958 73.1944 86.0127 72.9464 85.901C73.7424 85.2219 74.8149 84.6272 75.7447 83.9311ZM69.4753 99.424C69.0351 99.4708 68.3638 99.9097 68.0677 99.6799C68.2742 99.4604 69.278 99.0358 69.4753 99.424ZM78.482 77.2826C78.9041 76.9632 79.0755 76.0841 79.7338 76.3594C79.3456 76.7229 79.0352 77.3384 78.482 77.2826ZM84.08 56.6475C84.3307 56.7994 84.428 57.3968 83.7827 57.4033C83.7736 57.1059 83.5437 56.7267 84.08 56.6475ZM82.9373 54.9646C82.9101 54.9088 82.8945 54.8529 82.8906 54.7958C83.0113 54.7438 82.9464 54.6374 82.9438 54.5491C83.5736 54.292 83.9242 55.2243 83.4269 55.4022C83.3762 55.1529 83.1698 55.0438 82.9373 54.9646ZM84.3462 75.4725C84.193 75.3958 84.1229 75.4867 83.9463 75.3608C84.2359 74.3778 84.7176 73.3987 85.3994 72.617C85.215 73.6636 85.1319 74.7271 84.3462 75.4725ZM30.5828 95.8855C30.3789 95.8115 30.201 95.7219 30.0633 95.5791C30.2386 95.6816 30.4139 95.7842 30.5828 95.8855ZM82.3504 103.659C82.327 103.646 82.314 103.626 82.3114 103.603C82.8945 103.211 83.0308 102.805 83.8775 102.408C83.4905 102.786 83.2723 103.105 82.3504 103.659ZM15.8521 74.3791C15.7028 73.983 15.7729 74.0648 15.6119 73.7428C15.6586 73.7324 15.6651 73.6688 15.6716 73.6039C15.8261 73.9168 15.9716 74.2479 15.8521 74.3791ZM23.6498 83.7377L23.7446 83.8377L23.7381 83.8364C23.359 83.6338 22.8447 83.004 22.4967 82.4443C23.1019 83.1546 23.4577 83.5312 23.6498 83.7377ZM22.6617 83.2676C22.933 83.5741 23.2395 83.8896 23.333 84.1454C23.0733 83.8961 22.8149 83.6338 22.5513 83.3468C22.6201 83.2845 22.7214 83.4507 22.6617 83.2676ZM87.2355 99.9837L87.168 100.046C87.1784 99.9993 87.2069 99.9357 87.2589 99.8552L87.2939 99.8513C87.3926 99.7669 87.4147 99.772 87.4355 99.7824L87.4575 99.7669C87.39 99.8409 87.3264 99.8993 87.2355 99.9837ZM13.0252 77.7501C13.0252 77.7501 13.0265 77.7514 13.0265 77.7527L13.0213 77.7501C13.0226 77.7488 13.0239 77.7488 13.0252 77.7501ZM14.8068 80.4809C14.8094 80.4809 14.86 80.5835 14.8665 80.59C15.3405 81.1055 14.6081 80.464 14.8068 80.4809ZM15.9352 72.5819C16.0131 72.6222 16.0897 72.5936 16.1715 72.7416C16.1014 72.7377 16.1404 72.8832 16.0767 72.8871C16.0274 72.7429 15.982 72.6611 15.9352 72.5819ZM15.6547 70.5938C15.6547 70.5847 15.6534 70.577 15.6521 70.5679C15.7287 70.6315 15.83 70.686 15.93 70.7445C16.1456 71.2782 16.3832 71.7353 16.5286 72.4014C16.7598 72.726 16.9909 73.5623 17.3844 74.4206C17.8428 75.4153 18.2466 75.9724 18.4115 76.7204C18.2804 76.5139 18.2012 76.6567 18.0635 76.3931C18.1349 76.4061 18.0856 76.2892 18.0324 76.1672C17.6129 75.3023 17.1467 74.2908 16.7182 73.261C16.6221 73.065 16.5442 73.3467 16.4468 73.1182C16.5702 73.0065 16.1741 72.3001 16.3261 72.1209C16.0936 71.669 15.8625 71.2963 15.6547 70.5938ZM16.3014 82.917C17.0221 83.7558 17.5142 84.9245 18.1518 85.2712C18.1064 85.392 17.9233 85.144 18.0116 85.3673L18.3895 85.8634L18.4154 85.8958L18.3998 85.8919C18.3752 85.8868 18.3466 85.8803 18.3115 85.8673C18.0752 85.4699 17.4545 84.8492 17.0182 84.2298C16.6962 83.7792 16.1183 83.0339 16.3014 82.917ZM18.4726 86.0166C18.5219 86.062 18.5401 86.0348 18.5725 86.0387C18.8037 86.2919 18.6738 86.2763 18.8271 86.4698C18.7128 85.9686 19.6659 86.7594 19.814 87.2866L19.8438 87.3164C19.7906 87.3424 19.7802 87.397 19.7906 87.4814L19.7529 87.4736C19.7516 87.4736 19.7516 87.4749 19.7503 87.4749C19.1984 86.9477 18.7673 86.3945 18.383 86.0192L18.3349 85.9673C18.3933 85.9971 18.4375 86.0088 18.4726 86.0166ZM21.0865 79.6226L21.206 79.5551C21.367 79.7459 21.5722 80.0888 21.7306 80.2407C21.6228 80.4303 21.328 79.9537 21.0865 79.6226ZM22.4578 90.1096C22.8123 90.4277 23.033 90.5186 23.4395 90.8991C23.3317 91.0017 22.6266 90.4628 22.4084 90.1563C22.5214 90.255 22.4915 90.1836 22.4578 90.1096ZM46.0679 102.904C46.0198 102.898 45.9692 102.889 45.9107 102.874C45.8328 102.803 45.8328 102.739 45.912 102.699C46.0627 102.728 46.2133 102.756 46.3652 102.781C46.2795 102.828 46.0769 102.824 46.0679 102.904ZM56.4185 103.803C56.8159 103.814 57.2158 103.821 57.6184 103.822C57.4327 103.864 57.2457 103.864 56.9483 103.855C56.7886 103.849 56.6094 103.847 56.4198 103.851C56.425 103.834 56.425 103.817 56.4185 103.803ZM70.8934 103.016V103.009C70.8921 102.998 70.8908 102.986 70.8908 102.974C71.0336 102.905 70.8882 102.873 71.0894 102.796C71.1063 102.825 71.257 102.76 71.3595 102.728C71.3751 102.782 71.0518 103.034 70.8934 103.016ZM70.4908 103.151L70.4921 103.16C70.1675 103.353 70.1818 103.312 69.7338 103.498L69.6753 103.343C70.0909 103.253 70.4947 102.947 70.4687 103.098L70.4934 103.087C70.4895 103.109 70.4895 103.131 70.4908 103.151ZM69.8402 103.777C70.109 103.674 69.8195 103.63 70.187 103.514C70.2285 103.543 70.3402 103.482 70.448 103.421C70.5155 103.552 70.3077 103.678 69.8402 103.777ZM52.2061 106.484C52.1983 106.48 52.1931 106.476 52.1892 106.473L52.2307 106.476L52.2333 106.41C52.519 106.431 53.367 106.41 53.5578 106.443C53.1111 106.467 52.6605 106.48 52.2061 106.484ZM50.4154 106.361C50.2063 106.343 49.8986 106.337 49.8583 106.289C50.2063 106.31 49.9089 106.182 49.87 106.158C50.2128 106.247 50.4452 106.149 50.7036 106.247C50.4569 106.24 50.3816 106.283 50.4154 106.361ZM50.9698 106.46L51.4412 106.48C51.2737 106.478 51.1049 106.473 50.9374 106.467C50.9478 106.465 50.9569 106.461 50.9698 106.46ZM42.6774 105.213C42.5826 105.188 42.4878 105.162 42.393 105.136C42.406 105.122 42.4164 105.108 42.4267 105.093C42.4345 105.083 42.441 105.073 42.4488 105.064C42.554 105.071 42.6657 105.082 42.8384 105.122C42.8877 105.178 42.7929 105.208 42.6774 105.213ZM36.6275 103.096C36.3755 102.987 36.1249 102.876 35.8756 102.763C35.934 102.703 36.1963 102.783 36.2132 102.694L36.8573 102.934C36.8989 103.066 36.6469 103.003 36.6275 103.096ZM35.2562 102.474C35.1731 102.435 35.09 102.396 35.0082 102.357C35.0458 102.346 35.1121 102.354 35.277 102.433C35.2744 102.448 35.2653 102.461 35.2562 102.474ZM29.953 98.8631C29.8218 98.7826 29.6971 98.6982 29.5764 98.6099C29.6101 98.6293 29.6439 98.6488 29.6764 98.6683C29.779 98.7267 29.8763 98.7839 29.9672 98.8397L29.953 98.8631ZM27.4559 97.0646L27.4663 97.0633C27.465 97.0594 27.4598 97.0542 27.4559 97.049C27.4663 97.0607 27.4766 97.0724 27.487 97.0841C27.4779 97.0763 27.4676 97.0698 27.4559 97.0646ZM27.1494 97.0893C27.3026 97.1685 27.4208 97.2113 27.5078 97.2165C27.5546 97.2451 27.5974 97.2724 27.6403 97.2996C27.7688 97.41 27.7987 97.4866 27.7779 97.5451C27.6052 97.4139 27.1676 97.1841 27.1299 97.0958C27.1338 97.0919 27.1403 97.0906 27.1494 97.0893ZM27.7065 98.2398L27.6922 98.2761L27.6831 98.267C27.6429 98.2294 27.6039 98.1917 27.5649 98.1528C27.639 98.1826 27.7169 98.2229 27.7961 98.2709C27.7662 98.2618 27.7376 98.2489 27.7065 98.2398ZM30.6542 100.051C30.8438 100.189 30.8412 100.276 31.0697 100.423C31.3827 100.569 31.8878 100.82 32.4319 101.091C32.1994 101.128 32.0124 101.304 31.7462 101.245C31.1983 101.054 30.762 100.795 30.3932 100.51C30.4347 100.516 30.4854 100.53 30.5581 100.562C30.6035 100.582 30.6373 100.586 30.6438 100.576C30.6451 100.573 30.6451 100.569 30.6425 100.564C30.6308 100.541 30.575 100.503 30.5165 100.477C30.3958 100.425 30.3114 100.401 30.2477 100.389C29.94 100.132 29.6777 99.8604 29.4387 99.598C29.2972 99.4422 29.1621 99.2916 29.0271 99.1488C29.4764 99.3851 30.1257 99.8552 30.6542 100.051ZM21.9228 96.3101C21.7631 96.105 22.0981 96.3283 21.9397 96.1141C21.976 96.1413 22.0124 96.166 22.05 96.1933L22.163 96.2751L22.1448 96.2738C22.5266 96.6283 22.5435 96.5036 22.7564 96.6348C23.2109 97.1152 22.6149 96.9763 21.9228 96.3101ZM83.2321 103.622C83.2529 103.608 83.271 103.598 83.2905 103.586C83.571 103.456 83.8281 103.385 83.9684 103.642C83.797 103.714 83.7385 103.804 83.7606 103.908L83.7788 103.921C83.4282 104.078 83.0776 104.262 82.7361 104.438C82.1439 104.742 81.5648 105.021 80.9778 105.151C81.8115 104.634 82.5698 104.118 83.2321 103.622ZM23.8433 96.6672C23.6888 96.5218 23.4473 96.3374 23.2135 96.153C22.837 95.8569 22.4812 95.5583 22.5175 95.4492C22.911 95.8102 23.3914 96.1855 23.8862 96.5543C23.8589 96.5867 23.8459 96.6257 23.8433 96.6672ZM20.4165 95.6557C20.3853 95.6414 20.3567 95.6323 20.3321 95.6271C20.2762 95.5752 20.2178 95.518 20.1555 95.457C20.2555 95.5232 20.3451 95.5869 20.4165 95.6557ZM79.8806 106.728C78.3379 107.385 76.7706 107.948 75.298 108.424C74.1358 108.802 72.9606 109.193 71.7855 109.537C71.8634 109.496 71.9309 109.454 71.9841 109.415C72.7659 109.132 73.5463 108.829 74.315 108.511C74.9253 108.322 75.4889 108.119 75.9642 107.913C76.281 107.775 76.5641 107.587 76.8368 107.394C77.3211 107.165 77.7964 106.93 78.2574 106.689C78.9638 106.324 79.6377 105.951 80.2766 105.574C81.1999 105.575 82.0738 105.157 82.9023 104.731C83.2684 104.543 83.6139 104.361 83.9632 104.207L83.9684 104.239C83.9878 104.231 84.006 104.222 84.0255 104.213C83.6424 104.473 83.3412 104.67 83.0581 104.855C82.6464 105.121 82.2673 105.362 81.6998 105.708C81.6881 105.701 81.6946 105.686 81.7362 105.651C81.7712 105.623 81.7725 105.608 81.7401 105.615C81.7076 105.623 81.6531 105.653 81.6167 105.68C81.5154 105.76 81.4674 105.83 81.5972 105.814L81.5141 105.854C81.1661 106.071 80.8246 106.271 80.4883 106.465C80.2844 106.554 80.0818 106.643 79.8806 106.728ZM84.3125 104.494C84.0398 104.657 83.7593 104.818 83.4762 104.977C83.6502 104.796 83.8333 104.586 84.4008 104.252C84.4099 104.247 84.4177 104.244 84.4293 104.239C84.8046 104.039 85.1864 103.796 85.5188 103.55L85.5136 103.566L85.6448 103.477C85.8188 103.448 85.6188 103.669 85.3111 103.936C84.9877 104.143 84.615 104.314 84.3125 104.494ZM85.3227 103.573C85.1163 103.721 84.8903 103.866 84.6592 103.996C84.6527 103.947 84.728 103.866 84.7319 103.813C85.0436 103.601 85.315 103.385 85.5773 103.226C85.4396 103.364 85.3318 103.488 85.3227 103.573ZM96.7915 91.177C96.6941 91.2874 96.5876 91.1679 96.4837 91.1303C96.5058 90.9952 96.5317 90.8602 96.6681 90.7043C97.0771 90.3537 97.4537 89.9486 97.8069 89.5071C97.7563 89.6616 97.7329 89.7915 97.8667 89.7811C97.5381 90.2018 97.2291 90.6342 96.9473 91.0484C96.894 91.0939 96.8408 91.1367 96.7915 91.177ZM97.4992 90.5836C97.7394 90.2771 98.0069 90.0174 98.1264 89.7681L98.2419 89.8421C98.2263 89.8785 98.2069 89.9122 98.1874 89.9473C97.9576 90.1745 97.7238 90.3888 97.4992 90.5836ZM104.032 43.3868C103.906 42.8466 103.189 42.0506 103.832 41.8818C104.329 42.1454 104.144 42.7492 104.411 43.2479L104.032 43.3868ZM9.85414 80.0654L9.84375 80.0693C9.83207 80.0342 9.82038 79.9979 9.80739 79.9628C9.77883 79.8823 9.75286 79.8057 9.74247 79.7356L9.76844 79.8057L9.79441 79.7953C9.83986 79.881 9.87881 79.9628 9.91388 80.0394L9.85414 80.0654ZM11.3903 81.2899C11.4942 81.1938 11.6747 81.4366 11.924 81.9197C11.7474 81.9924 11.6241 81.6678 11.3903 81.2899ZM12.3292 82.9118C12.9719 83.8818 12.2889 83.165 12.3292 82.9118V82.9118ZM11.737 83.9974C11.7383 83.9987 11.7396 83.9987 11.7409 84C11.7981 84.0337 11.8617 84.0688 11.9019 84.0623V84.0636C11.9565 84.1662 11.9799 84.1675 12.0032 84.1636C12.1253 84.4532 12.3512 84.557 12.2915 84.6285C11.9591 84.2389 12.4434 85.0128 12.2902 84.9453C12.05 84.5402 11.8708 84.2999 11.6825 84.0298L11.737 83.9974ZM12.3019 84.0091L12.3084 84.0078C12.3201 84.0052 12.3318 84.0013 12.3434 84L12.4746 84.2116L12.4149 84.2454C12.3331 84.1233 12.3006 84.0493 12.3019 84.0091ZM13.2187 84.5622L13.0745 84.3363L13.1927 84.2688L13.3368 84.4947L13.2187 84.5622ZM18.9115 91.9172C18.6855 91.8315 19.0972 92.0094 19.3205 92.2808C19.2361 92.334 19.079 92.2691 18.7414 91.8873C18.7011 91.7626 18.7699 91.6302 18.9115 91.9172ZM19.0894 93.4274C19.1127 93.5793 19.4659 93.7416 19.6166 93.8845L19.5919 93.9078L19.6127 93.9247C19.6127 93.9247 19.6127 93.9247 19.6127 93.926C19.6244 93.9858 19.6244 94.0351 19.6244 94.087L19.6257 94.1286L19.5958 94.0974C19.488 94.0351 19.4685 94.1052 19.3192 93.9767C19.3101 93.9 19.227 93.8949 19.1166 93.7845C19.1439 93.5936 19.2997 93.9117 19.3919 93.9078C19.2777 93.7624 18.6959 93.1508 19.0894 93.4274ZM19.5594 96.3374C19.6257 96.3582 19.7568 96.4465 19.9087 96.5621C19.8646 96.5595 19.8191 96.5556 19.775 96.553C19.6971 96.4764 19.6101 96.4023 19.5205 96.3335L19.5594 96.3374ZM15.2041 95.3025C15.2184 95.3116 15.2301 95.3181 15.2418 95.3245C15.4535 95.5648 15.6547 95.5869 15.8443 95.3895C16.2715 95.7622 16.4338 96.0881 16.6494 96.4218C16.4715 96.6387 16.2793 96.6971 16.0845 96.7205C15.7274 96.3829 15.369 96.0543 15.0353 95.7349C15.1132 95.6037 15.1976 95.4713 15.2041 95.3025ZM35.8392 111.967C35.8133 111.967 35.7743 111.959 35.7185 111.943C35.7185 111.943 35.7172 111.942 35.7172 111.941C35.7587 111.951 35.799 111.959 35.8392 111.967ZM35.4159 114.592L35.7613 114.716L35.6743 114.938C35.5601 114.905 35.4445 114.865 35.3289 114.813L35.4159 114.592ZM91.3025 99.7837C91.3038 99.7357 91.3142 99.6825 91.3259 99.6396C91.3155 99.6201 91.4103 99.5045 91.5583 99.3422C91.57 99.3734 91.5843 99.402 91.6012 99.4266C91.5142 99.5526 91.4116 99.6747 91.3025 99.7837ZM91.8012 99.241C91.7895 99.2111 91.7791 99.1682 91.77 99.1137C91.9687 98.9046 92.2063 98.6618 92.4245 98.4385C92.6141 98.2463 92.7907 98.0697 92.9218 97.9476C92.9932 97.8931 93.062 97.8515 93.1244 97.8242C93.1062 97.8567 93.0737 97.9061 93.0218 97.9775L93.0387 97.9632C92.9854 98.0398 92.9698 98.0826 92.9582 98.1177L92.9504 98.1398C92.9348 98.1826 92.9802 98.171 93.0543 98.1125C93.127 98.0541 93.1997 97.9723 93.2153 97.9294L93.2244 97.9022C93.2348 97.8684 93.2425 97.8489 93.275 97.8074L93.2984 97.8022C93.2997 97.8009 93.3023 97.7996 93.3036 97.7983C93.3724 97.8152 93.4269 97.8723 93.462 97.9827L93.4789 97.9879C92.9543 98.441 92.4011 98.8994 91.8012 99.241ZM57.7638 4.39551C58.7962 4.56432 59.8999 4.9357 60.8115 5.0201C59.9752 5.08113 58.9754 5.14217 57.995 5.14996C57.0133 5.15645 56.0484 5.10711 55.2693 4.91752C55.7848 4.25267 56.7341 4.2228 57.7638 4.39551ZM49.8752 4.93959C50.4985 4.92661 51.1023 5.04737 51.3516 5.27722C51.0257 5.3837 50.3427 5.48498 49.7012 5.52913C49.0597 5.57069 48.4598 5.55121 48.2975 5.37331C48.613 5.09931 49.2519 4.95128 49.8752 4.93959ZM32.9253 11.3531L32.9058 11.3336C32.9578 11.318 33.0097 11.3024 33.0617 11.2856C33.1227 11.2661 33.185 11.2466 33.2474 11.2284L33.3538 11.4492C32.7383 11.6933 32.0293 12.153 31.6735 11.9206C32.0891 11.7284 32.5072 11.5375 32.9253 11.3531ZM10.0515 87.0788C10.0736 87.0879 10.097 87.0983 10.1177 87.1061C10.1385 87.1139 10.158 87.123 10.1788 87.1308L10.1892 87.1632C10.5917 87.6696 10.8722 87.8255 11.08 87.8086C10.7073 87.2957 10.9943 87.5008 10.6216 87.0723L10.6514 87.0541L10.6398 87.0386C10.6592 87.0424 10.68 87.0476 10.6982 87.0502C10.8138 87.1489 11.0709 87.6177 11.0917 87.4619C11.3267 87.7943 11.215 87.8099 11.3046 88.0086C11.5539 88.2761 11.789 88.489 11.9812 88.6033C11.7877 88.2267 11.5306 87.9514 11.676 87.9436C11.3942 87.7683 11.441 87.6255 11.2942 87.3359C10.9202 86.91 10.5463 86.3841 10.3476 85.8984C10.1398 85.7959 10.0385 86.0127 10.3723 86.3815C10.3502 86.4217 10.3021 86.3854 10.2346 86.2945C10.1879 86.4893 10.5502 86.5607 10.4697 86.6581L10.4826 86.6763C10.4632 86.6724 10.4437 86.6672 10.4242 86.6633C10.0944 86.3776 10.2333 86.9892 9.9775 86.7801L10.0061 86.8204C9.9853 86.8113 9.96322 86.8022 9.94244 86.7931C9.92297 86.7866 9.90219 86.7763 9.88271 86.7685C9.64118 86.4594 9.63209 86.3438 9.29577 85.8296C9.03217 85.2881 9.58145 85.8465 9.4425 85.4154C9.01658 84.6778 9.01658 85.179 8.87374 85.0648C8.52963 84.5532 8.1154 83.8364 7.74012 83.1248C7.36354 82.4132 7.02592 81.708 6.79608 81.2315C6.68051 80.8705 6.83893 80.89 6.80127 80.7575L6.76881 80.6991C6.79868 80.7302 6.82724 80.7601 6.85451 80.7874C7.03631 81.1549 7.00125 81.2484 7.23628 81.6717C7.32978 81.6782 7.51677 82.0963 7.58559 81.9898C7.67 81.9327 7.36224 81.5055 7.5817 81.5185C7.22979 81.1341 7.49989 81.1354 7.06228 80.3368C7.03501 80.3731 6.99216 80.3316 6.93892 80.2329C6.78309 80.1589 7.09214 80.6822 6.99086 80.677C6.81815 80.4601 6.85581 80.4472 6.80387 80.5991L6.84153 80.6666L6.83763 80.6627C6.80776 80.6329 6.7792 80.6043 6.74933 80.5731C6.46365 80.0927 6.09487 79.3018 5.73517 78.437C5.36509 77.5501 5.00669 76.5905 4.70413 75.8334C4.65219 75.7036 4.64569 75.6465 4.64959 75.6062C5.03656 75.9867 5.46507 76.2672 6.02864 76.2256C6.70908 77.0268 6.85711 78.228 7.44145 78.8577C7.80764 78.3994 7.39211 78.2072 7.76219 78.2461C7.77648 78.4137 7.76349 78.5422 7.85049 78.8032C8.12319 79.4252 8.25823 79.2161 8.54911 79.8719C8.53742 79.559 8.35173 79.011 8.38679 78.7448C8.25304 78.4708 8.13357 78.2747 8.0206 78.1176C7.88555 77.741 7.74401 77.3995 7.61026 77.0813C7.61935 77.0281 7.62325 76.9671 7.66091 76.9554C7.43366 76.6632 7.29861 76.1542 7.14149 75.7906C7.12331 75.7205 7.10513 75.6504 7.09085 75.5802C7.19473 75.5231 7.29991 75.5374 7.40639 75.6036C7.58299 76.0983 7.7544 76.6009 7.92061 76.8658C7.95438 77.0502 7.87387 77.071 7.93879 77.2956C8.13617 77.7072 8.36342 78.2578 8.5543 78.5305C8.71013 78.9019 8.68416 79.0279 8.69974 79.211C8.93218 79.4512 9.29187 80.1654 9.09709 80.2394L9.10099 80.2459C9.09579 80.2433 9.088 80.2407 9.08411 80.2381C9.05814 80.1667 9.01399 80.0888 8.97892 80.0563C8.93867 80.0186 8.92568 80.0511 8.94776 80.1303L8.97892 80.2381L9.01399 80.3069C9.09709 80.4627 9.1802 80.551 9.26071 80.5718L9.27629 80.6121C9.55028 80.951 9.64897 81.0964 9.8957 81.5418C10.0126 81.7743 9.83596 81.6756 9.99438 81.9522C9.75286 81.6275 9.77233 81.7119 9.64767 81.6574L9.64248 81.6886C9.60482 81.6042 9.56457 81.5275 9.52821 81.4626L9.46848 81.3535C9.43861 81.2951 9.40355 81.26 9.38927 81.2639C9.37628 81.273 9.38926 81.3289 9.42043 81.3886L9.49185 81.5198C9.50743 81.5483 9.52042 81.5704 9.5321 81.5938C9.59443 81.873 10.0165 82.5443 10.1762 82.7897C10.1385 82.6027 10.1035 82.417 10.258 82.4404C10.306 82.5391 11.0878 83.8078 10.8151 83.7091C11.2734 84.2766 11.4734 84.6882 11.5033 84.9141C11.9435 85.3466 12.3707 86.301 12.8927 86.8321C12.9499 86.9399 13.0083 87.0489 12.9953 87.0944C12.9771 87.11 12.9641 87.1308 12.9525 87.1567L12.9382 87.1334C12.8992 87.1269 12.8291 87.0373 12.8005 87.0554C12.2967 86.1491 11.9071 85.9673 11.5059 85.5556C11.6994 85.5699 11.5072 85.3141 11.4747 84.931C11.1579 84.4038 11.1761 84.5869 10.806 84.0285C10.7164 84.1973 10.506 83.9662 10.2827 83.674C10.3528 83.9701 10.6852 84.4947 10.9254 84.7583C11.0059 84.9012 10.9332 84.8895 10.9099 84.9284C11.3371 85.5284 11.4007 85.8919 11.6422 86.2646C11.5669 86.2036 11.5072 86.1789 11.4604 86.1906C11.3734 86.0958 11.2527 85.9036 11.1968 85.8984C11.0981 85.566 10.8319 85.331 10.7294 85.0284C10.4606 84.6895 10.6592 85.2011 10.5203 85.1453C11.0475 85.9348 11.0735 85.9439 11.3007 86.4945C11.5293 86.7113 11.8851 86.9139 11.5851 86.3737C11.6331 86.3672 11.6994 86.4088 11.7812 86.4958L11.7786 86.536C11.8747 86.6711 11.898 86.6022 11.9448 86.5996C12.1383 86.8905 12.1357 86.9931 12.3434 87.1801L12.2279 87.2528L12.2461 87.2749C12.2201 87.2749 12.198 87.2801 12.1772 87.2853L12.1565 87.2918C12.1292 87.3009 12.1565 87.3866 12.224 87.4865C12.2915 87.5852 12.3694 87.6593 12.3993 87.6515L12.4214 87.645C12.433 87.6411 12.446 87.6385 12.4577 87.6359C13.0239 88.3124 13.0862 87.8488 13.4758 88.2839C13.4862 88.1787 13.3498 87.9501 13.4784 87.9449C13.3602 87.8034 13.2979 87.8008 13.1732 87.6437C13.2096 87.606 13.3109 87.6229 13.2161 87.4749C13.2226 87.4619 13.2303 87.4528 13.2394 87.445C13.5939 87.9631 13.7965 88.1073 14.1783 88.6461C13.9887 88.7124 13.7679 88.7111 13.4459 88.4721C13.616 88.8422 13.7056 89.1084 14.1095 89.5525V89.5512L14.1108 89.5538L14.1095 89.5525C13.9601 89.6045 14.6964 90.3368 14.5977 90.4226C14.7834 90.6758 14.7795 90.5381 14.9249 90.7082V90.7056L14.9951 90.7991C15.1028 90.9446 15.2262 91.1095 15.3716 91.2575L15.4054 91.2913L15.4288 91.303C15.4898 91.3341 15.5418 91.3445 15.5664 91.325C15.5807 91.3134 15.5846 91.2887 15.5755 91.2523L15.5872 91.2679C15.6041 91.1809 15.7184 91.2822 15.7846 91.29L15.8365 91.3432C15.9105 91.4211 15.9807 91.4926 16.0404 91.5497L16.1196 91.6263L16.1599 91.6302C16.2637 91.6393 16.3715 91.6912 16.5079 91.7912L16.5157 91.799C16.6338 91.9561 16.7026 92.0795 16.7182 92.1665C16.9857 92.4379 16.9987 92.2587 17.2325 92.4665C17.3961 92.8002 16.7468 92.2847 16.5884 92.2756C16.3027 91.7795 15.7495 91.4159 15.6846 91.7354C15.9235 92.0392 15.9274 91.9055 16.117 92.1146C16.1118 92.1821 16.1586 92.2678 16.4248 92.5976C16.2754 92.5587 16.0871 92.4483 16.0235 92.5639C16.6845 93.1326 17.087 93.7092 17.4649 93.9637C17.7077 94.2078 18.0324 94.6857 17.748 94.4818C18.4739 95.0791 19.2088 95.9712 18.8504 96.0245C19.1855 96.2933 19.4374 96.4374 19.6192 96.4816L19.6101 96.4725C19.6361 96.4958 19.662 96.5205 19.688 96.5465C19.2023 96.5075 18.7115 96.4374 18.1999 96.1115C17.6636 95.0233 16.5533 93.839 15.6846 92.6327C15.3418 92.3769 14.9925 92.4859 14.6497 92.2262C14.2536 91.6951 14.0004 91.7691 13.8536 91.2341C13.7316 91.2121 13.6095 91.1744 13.4888 91.129C12.9447 90.5524 12.3655 89.9733 11.9526 89.3162C12.1227 89.372 12.3344 89.5201 12.4681 89.4915C12.1084 89.0331 11.9889 89.124 11.5786 88.5202C11.7292 88.876 11.5786 89.0318 11.0968 88.3124C11.1735 88.5656 11.5383 89.098 11.9786 89.6616C12.311 90.0875 12.6876 90.5316 13.0018 90.8991C12.7901 90.7784 12.5811 90.6381 12.3733 90.4862C12.2357 90.3135 12.0993 90.1395 11.963 89.9642C11.1774 88.9539 10.4359 87.8969 10.0515 87.0788ZM11.9941 92.2457C12.0383 92.2418 12.0824 92.2444 12.1266 92.2574C12.9278 93.465 13.655 93.6131 14.0861 94.2195C14.0744 94.2065 14.0601 94.1935 14.0497 94.1831L14.0173 94.152L13.9913 94.1351C13.9173 94.087 13.8705 94.0883 13.8251 94.0896H13.7939C13.7679 94.0857 13.7887 94.1338 13.8368 94.1935C13.8848 94.252 13.9445 94.3 13.9692 94.3013H14.003C14.0056 94.3013 14.0108 94.3013 14.0134 94.3013C13.9368 94.3312 13.8744 94.3662 13.8238 94.4039C13.7329 94.2727 13.6511 94.1429 13.5861 94.0143C13.3797 93.8416 13.1927 93.7027 13.0031 93.5559C12.9719 93.5235 12.9408 93.491 12.9109 93.4585C12.8239 93.3637 12.7395 93.3079 12.7278 93.3378C12.7148 93.3663 12.7746 93.4676 12.8616 93.5624C12.9109 93.6144 12.9577 93.665 13.0044 93.7144L12.9966 93.7131C13.0836 93.8871 13.3953 94.2455 13.6757 94.5649C13.4368 94.9869 13.9406 95.5972 13.1979 95.631C13.2498 95.7024 13.2862 95.7699 13.3161 95.8362C12.7265 95.2259 12.1565 94.6052 11.6435 93.9806C11.5189 93.5793 11.3708 93.169 11.154 92.7392C11.3682 92.6041 11.5864 92.4015 11.7994 92.3041C12.0292 92.5587 12.259 92.7846 12.4811 92.9638C12.4928 92.8482 12.2435 92.5431 11.9941 92.2457ZM33.2551 114.047C33.2733 113.865 32.8721 113.777 32.628 113.651L32.6176 113.635C32.6241 113.634 32.6318 113.633 32.6383 113.63L32.7578 113.576C32.8175 113.547 32.876 113.521 32.9344 113.495C33.2435 113.609 33.7953 114.111 33.2551 114.047ZM33.872 110.936C34.3459 111.13 34.6511 111.203 34.8407 111.226L34.842 111.328C34.842 111.328 34.8394 111.159 34.7628 111.463C34.6861 111.438 34.6069 111.412 34.5238 111.386C34.5147 111.424 34.581 111.482 34.69 111.547C34.2654 111.382 33.7551 111.233 33.872 110.936ZM53.1475 119.381L53.1631 119.145C53.6864 119.141 53.7929 119.205 53.5578 119.396C53.4189 119.414 53.2787 119.41 53.1475 119.381ZM62.2477 115.806L62.223 115.549C62.4476 115.522 62.4502 115.364 62.7372 115.373L62.7645 115.63C62.5398 115.658 62.5372 115.817 62.2477 115.806ZM63.2631 115.321C64.3137 115.101 63.4514 115.895 63.2631 115.321V115.321ZM68.656 115.295C68.6988 114.994 68.3002 115.035 67.7898 115.101C67.2795 115.166 66.6536 115.252 66.2589 115.061C66.7497 114.984 67.3419 114.762 67.9664 114.583C68.5923 114.405 69.2507 114.27 69.9026 114.378C69.9662 115.145 69.0572 114.809 68.656 115.295ZM112.686 61.8534C112.664 62.6909 112.456 63.4298 112.434 64.2686C112.406 65.2581 112.692 66.3476 112.14 67.1592C112.001 66.9605 112.116 66.5229 112.035 66.2671C112.174 65.7373 112.221 65.1789 112.256 64.6374C112.278 64.3115 112.295 64.0037 112.326 63.7077C112.34 63.5817 112.265 63.47 112.158 63.4571L112.148 63.4558C112.047 63.4506 111.957 63.5402 111.943 63.6609C111.91 63.9713 111.891 64.2985 111.87 64.6166C111.835 65.1413 111.791 65.6841 111.66 66.1762C111.642 66.245 111.655 66.3125 111.684 66.3658C111.512 67.0878 111.434 67.663 111.347 68.285C111.255 68.9239 111.153 69.6121 110.891 70.5393C111.278 71.7599 110.939 73.3299 110.635 74.9297C110.413 76.11 109.924 77.3826 109.339 78.6513C108.755 79.9226 108.076 81.1873 107.491 82.4054C106.92 83.6026 106.09 84.9219 105.153 86.2958C104.215 87.6722 103.167 89.1006 102.166 90.568C101.864 90.7654 101.558 90.9342 101.255 91.1251C99.9885 92.782 98.3887 94.6974 96.6097 96.3621C94.8397 98.0333 92.8997 99.4461 91.1727 100.227L91.1701 100.225C91.2753 100.121 91.3739 100.02 91.4713 99.9214C91.4856 99.9071 91.4999 99.8915 91.5142 99.8759C91.522 99.8681 91.5298 99.8591 91.5389 99.8513C91.5376 99.8513 91.5376 99.8513 91.5363 99.8526C91.6427 99.7409 91.744 99.6175 91.831 99.4877C92.4894 99.1267 93.0828 98.6345 93.6438 98.1476L93.6477 98.1658C94.9553 97.0711 95.9864 96.1271 96.9447 95.1934C97.9004 94.2571 98.7808 93.3274 99.7288 92.2068L99.7015 92.1977C102.345 89.7707 104.305 87.132 105.664 84.3934C105.723 84.2753 105.69 84.1441 105.592 84.0961L105.584 84.0935C105.48 84.0493 105.346 84.1103 105.287 84.2311C103.963 86.8944 102.061 89.4642 99.4976 91.8328C99.2327 91.5107 99.8768 90.4174 100.126 89.9707C100.774 88.8435 101.644 87.9073 102.17 87.2619C102.419 87.2892 102.63 87.1723 102.819 87.0321C102.905 86.9697 102.934 86.8542 102.887 86.775C102.874 86.7542 102.856 86.7373 102.836 86.7256C102.782 86.6957 102.709 86.7009 102.648 86.7464C102.493 86.8607 102.379 86.9191 102.245 86.9009L102.261 86.8866C102.619 86.1685 102.378 85.7283 102.402 85.2933C102.415 85.2738 102.425 85.2518 102.43 85.2284C102.456 85.1089 102.502 85.0102 102.554 84.8947C102.591 84.8155 102.627 84.7233 102.661 84.6246L102.683 84.6492C103.223 84.3778 103.485 83.8675 103.67 83.2897C103.719 83.1338 103.763 82.9728 103.806 82.8092C104.07 82.4651 104.298 82.2469 104.475 82.2859C104.928 81.5704 105.035 80.8094 105.322 80.4316C105.49 79.9719 105.412 79.8654 105.331 79.7693C105.488 79.346 105.57 79.0253 105.629 78.7383C105.815 78.3825 105.996 78.0254 106.16 77.6696C106.701 76.51 107.28 75.1543 107.739 73.7181C108.2 72.2845 108.539 70.773 108.648 69.3459L108.613 69.3498C108.79 68.7395 108.904 68.0591 108.939 67.3747L108.972 67.389C109.485 65.4555 109.559 63.0636 109.591 60.8587C109.939 60.386 110.2 59.8069 110.24 59.0044C110.542 58.781 110.762 59.3913 110.782 58.9888C110.414 58.3785 110.439 57.45 110.49 56.6021C110.544 55.7567 110.629 54.9945 110.455 54.7763C110.527 54.8672 110.257 54.962 110.204 54.9607C110.111 54.1725 109.944 53.3505 110.138 52.8402C110.196 52.9557 110.222 53.1129 110.248 53.318C110.261 53.4232 110.274 53.5284 110.295 53.6245C110.313 53.7128 110.392 53.7712 110.466 53.7544C110.543 53.7375 110.588 53.6518 110.569 53.5635C110.551 53.4765 110.539 53.3843 110.527 53.2895C110.492 53.0103 110.444 52.6701 110.199 52.4584L110.247 52.4311C109.891 49.7419 109.152 47.3162 108.255 44.9593C107.376 42.6609 106.351 40.4287 105.237 37.9992C105.275 37.9355 105.319 37.8758 105.367 37.8174C105.45 37.7174 105.536 37.6148 105.568 37.4668L105.583 37.3992L105.557 37.3291C105.164 36.263 104.531 35.2527 103.885 34.2996L103.72 34.0581L103.766 34.049C103.539 33.6867 103.308 33.327 103.071 32.9699C103.966 33.2244 104.542 34.3438 105.068 35.1696C106.88 37.9992 108.422 41.0884 109.616 44.3711C110.811 47.6512 111.643 51.1105 112.067 54.5984C112.366 57.063 112.747 59.5368 112.686 61.8534ZM107.767 57.4448C107.836 57.4916 107.926 57.4682 107.967 57.3929L107.989 57.3487C107.995 57.3344 108.002 57.3227 108.01 57.3111C108.095 57.3461 108.136 57.4396 108.256 57.4318C108.348 58.2304 108.365 58.9862 108.113 59.4627C108.052 59.5082 107.995 59.5446 107.949 59.5705L107.947 59.529C107.456 59.1732 107.302 58.2473 107.23 57.2318C107.164 56.2177 107.176 55.1074 107.127 54.4114C107.517 54.4647 107.645 54.901 107.693 55.4308C107.742 55.9606 107.711 56.5813 107.817 57.0137L107.847 57.0215C107.785 57.0851 107.755 57.1422 107.732 57.1916L107.715 57.2254C107.673 57.3007 107.697 57.3981 107.767 57.4448ZM107.817 65.5334C108.072 63.5635 108.197 61.5677 108.087 59.7056C108.134 59.6757 108.186 59.6419 108.241 59.6004L108.221 59.6705L108.356 59.6679C108.695 60.9665 108.661 62.2689 108.585 63.5609C108.512 64.7894 108.403 66.0074 108.522 67.2839C108.522 67.2851 108.521 67.2878 108.521 67.289C108.491 67.9955 108.373 68.7019 108.185 69.3226C108.182 69.3329 108.184 69.342 108.181 69.3524C107.858 70.1913 107.642 71.2613 106.847 71.308C107.185 69.4745 107.565 67.5163 107.817 65.5334Z" fill="#E6DC93"/>
</svg>
